/* XPM */
static char *_2523ee2e8b94878cb050480e92f9325pw8RcnHal5EFq4Ii[] = {
/* columns rows colors chars-per-pixel */
"16 16 43 1 ",
"  c None",
". c #4A9B07",
"X c #51A409",
"o c #51A909",
"O c #54AF09",
"+ c #58AE0A",
"@ c #56B409",
"# c #57B709",
"$ c #58B009",
"% c #5DB30A",
"& c #5FB20C",
"* c #59BB09",
"= c #61B30F",
"- c #61B50C",
"; c #63B70D",
": c #67B90D",
"> c #63AF1C",
", c #67BF16",
"< c #73BE16",
"1 c #7BB839",
"2 c #7BB83A",
"3 c #6BC31B",
"4 c #6FC424",
"5 c #7EB64F",
"6 c #84CA26",
"7 c #86CB29",
"8 c #89CD2F",
"9 c #8FCE39",
"0 c #8ABC55",
"q c #95D145",
"w c #97D247",
"e c #A3D857",
"r c #A7DD5F",
"t c #93C068",
"y c #A3CA78",
"u c #ADCE85",
"i c #B6D09D",
"p c #B8D0A2",
"a c #C4D6B3",
"s c #DDE4D8",
"d c #E5E9E3",
"f c #E7E9E4",
"g c gray93",
/* pixels */
"                ",
"       #*       ",
"     ,,:-%$*    ",
"   =4764<:=+#   ",
"   2qq90t2=$O*  ",
"  4ereeuau5>+o  ",
"  2yiiiadsat>X  ",
" .0asdddggdat>* ",
" .0asdffggda0>* ",
"  2yiiiadspt>X  ",
"  2ereeuau5>+o  ",
"   2wqq0t2=%O*  ",
"   -48743:&+#   ",
"     ,,--%$#    ",
"       $#       ",
"                "
};
