/* XPM */
static char *_2f2cebaa7334fe7f255c217cc5a54c43vhRLhGODRq3BkjB[] = {
/* columns rows colors chars-per-pixel */
"16 16 37 1 ",
"  c None",
". c #56B409",
"X c #5DB30A",
"o c #59BB09",
"O c #61B30F",
"+ c #61B50C",
"@ c #63B70D",
"# c #61B90D",
"$ c #63AF1C",
"% c #67BF16",
"& c #7BB839",
"* c #6BC31B",
"= c #6FC424",
"- c #77B342",
"; c #7EB64F",
": c #84CA26",
"> c #86CB29",
", c #89CD2F",
"< c #8DCE37",
"1 c #8ABC55",
"2 c #88D340",
"3 c #95D145",
"4 c #97D247",
"5 c #A3D857",
"6 c #93C068",
"7 c #97C16E",
"8 c #ACDD63",
"9 c #A0C875",
"0 c #A3CA78",
"q c #ADCE85",
"w c #B6D09D",
"e c #B8D0A2",
"r c #C4D6B3",
"t c #D8E1D1",
"y c #DDE4D8",
"u c #E5E9E3",
"i c #E7E9E4",
/* pixels */
"                ",
"       X@       ",
"    .XO@%*=     ",
"   .XO=&=,,>=   ",
"  .O$&1614332   ",
"  O$;7qwq08851  ",
"  $;9ettreewq6  ",
" O&6wtuiyttte7- ",
" O&6etuiyttte7- ",
"  $;0rttreewq6  ",
"  O$;7qwq08851  ",
"  .O$&161443<   ",
"   .XO=&=>>:=   ",
"    .XO%**=     ",
"       o#       ",
"                "
};
