/* XPM */
static char *b87c6cf7371b4341e27eca331180534aSVXbG3xMj6HHZmlU[] = {
/* columns rows colors chars-per-pixel */
"16 16 104 2 ",
"   c None",
".  c #214603",
"X  c #4A9B07",
"o  c #4B9C07",
"O  c #4B9D07",
"+  c #4EA008",
"@  c #4FA708",
"#  c #4FA609",
"$  c #51A408",
"%  c #51A409",
"&  c #50A808",
"*  c #50A908",
"=  c #51A909",
"-  c #51AA09",
";  c #53AD09",
":  c #54AF09",
">  c #57AF09",
",  c #58AD0A",
"<  c #58AE0A",
"1  c #54B009",
"2  c #54B109",
"3  c #56B309",
"4  c #56B409",
"5  c #57B709",
"6  c #58B009",
"7  c #5DB30A",
"8  c #5EB40B",
"9  c #5FB20C",
"0  c #5FB30C",
"q  c #58BB09",
"w  c #59BB09",
"e  c #59BD09",
"r  c #5ABE09",
"t  c #61B30E",
"y  c #61B30F",
"u  c #61B50C",
"i  c #62B50C",
"p  c #63B70C",
"a  c #63B70D",
"s  c #61B90D",
"d  c #60B80E",
"f  c #67B90D",
"g  c #68BA0D",
"h  c #68BB0D",
"j  c #6DBE0F",
"k  c #63AF1C",
"l  c #67BF16",
"z  c #6EBE10",
"x  c #73BE16",
"c  c #74BF19",
"v  c #66AF22",
"b  c #7BB839",
"n  c #7BB83A",
"m  c #5BC10A",
"M  c #5BC20A",
"N  c #5CC309",
"B  c #5DC50A",
"V  c #67C015",
"C  c #6BC31B",
"Z  c #6FC423",
"A  c #6FC424",
"S  c #77B342",
"D  c #7EB64F",
"F  c #84CA26",
"G  c #86CB29",
"H  c #87CC2D",
"J  c #89CD2F",
"K  c #8DCE37",
"L  c #8FCE39",
"P  c #8ABC55",
"I  c #88D340",
"U  c #95D145",
"Y  c #97D247",
"T  c #99D445",
"R  c #9AD448",
"E  c #A0D84E",
"W  c #A2D755",
"Q  c #A2D951",
"!  c #A3D857",
"~  c #A6DD5D",
"^  c #A7DD5F",
"/  c #93C068",
"(  c #97C16E",
")  c #ACDD63",
"_  c #AEDD66",
"`  c #A0C874",
"'  c #A0C875",
"]  c #A3C978",
"[  c #A3CA78",
"{  c #A3CA79",
"}  c #A4C978",
"|  c #A8CC7F",
" . c #ADCE85",
".. c #B6CF9D",
"X. c #B6D09D",
"o. c #B8D0A2",
"O. c #BED3AB",
"+. c #C4D6B3",
"@. c #D8E1D1",
"#. c #DDE4D8",
"$. c #E5E9E3",
"%. c #E7E9E4",
"&. c gray93",
"*. c #EEEEEE",
/* pixels */
"                                ",
"              N N               ",
"        N % X o o o @ N         ",
"      r $ : 6 D S 6 1 + w       ",
"    m % 7 7 k #.@.k u 7 % r     ",
"    : u u y +.*.&.o.y s u :     ",
"    < g g ( &.*.&.&./ g g <     ",
"  w 9 j n %.&.&.*.&.$.b z 9 4   ",
"  4 f x P ` X.*.*.X.' P C a 6   ",
"    s F K U [ &.&.} Y L G a     ",
"    5 J T !  .&.*. .! T K 1     ",
"      V R )  .&.*. .) Q l       ",
"      = C ^ ' +.+.} ^ C @       ",
"          = A I I A =           ",
"              . .               ",
"                                "
};
