/* XPM */
static char *_2193abf713e4ad4ee5306e6f0974e7fMIvfoAnlRpEHyvZK[] = {
/* columns rows colors chars-per-pixel */
"16 16 39 1 ",
"  c None",
". c #54AF09",
"X c #56B409",
"o c #57B709",
"O c #58B009",
"+ c #5DB30A",
"@ c #5FB20C",
"# c #59BB09",
"$ c #61B30F",
"% c #63B70D",
"& c #61B90D",
"* c #63AF1C",
"= c #67BF16",
"- c #7BB83A",
"; c #6BC31B",
": c #6FC424",
"> c #77B342",
", c #7EB64F",
"< c #84CA26",
"1 c #86CB29",
"2 c #89CD2F",
"3 c #8ABC55",
"4 c #95D145",
"5 c #97D247",
"6 c #A3D857",
"7 c #A7DD5F",
"8 c #93C068",
"9 c #97C16E",
"0 c #ACDD63",
"q c #A0C875",
"w c #ADCE85",
"e c #B6D09D",
"r c #B8D0A2",
"t c #C4D6B3",
"y c #D8E1D1",
"u c #DDE4D8",
"i c #E5E9E3",
"p c #E7E9E4",
"a c gray93",
/* pixels */
"                ",
"       **       ",
"     -3883-     ",
"   :-6wrrw6-:   ",
"   <40eyye74:   ",
"  ;247ruue741;  ",
"  ;140ruue04<;  ",
" +=:3wtpptw3:;# ",
" X@:8ruaaur8:$# ",
"  +;,wyppyw,=@  ",
"  O$*8ruut8*$O  ",
"  XO$>9rrq>$Oo  ",
"   XO*>88>*OX   ",
"    oO****Oo    ",
"       &@       ",
"                "
};
