/* XPM */
static char *_695578866742[] = {
/* columns rows colors chars-per-pixel */
"64 64 133 2 ",
"   c white",
".  c #FEFDFD",
"X  c #00156F",
"o  c #041A72",
"O  c #FFFFFD",
"+  c #031970",
"@  c #031A73",
"#  c #041971",
"$  c #FDFFFF",
"%  c #9B9B9B",
"&  c #E32520",
"*  c #FBFBFC",
"=  c #F32216",
"-  c #11267A",
";  c #011771",
":  c #FEFAF9",
">  c #E84E4A",
",  c #071D73",
"<  c #8B1D3D",
"1  c #E11712",
"2  c #E2201B",
"3  c #E1140F",
"4  c #001C7A",
"5  c #E21E19",
"6  c #E42E29",
"7  c #000665",
"8  c #DF221E",
"9  c #FEFEFE",
"0  c #00116C",
"q  c #FCECEC",
"w  c #E11A15",
"e  c #000C6A",
"r  c #FDFDFD",
"t  c #0F2478",
"y  c #162A7C",
"u  c #E3231E",
"i  c #EEEFF4",
"p  c #ED625E",
"a  c #FADDDC",
"s  c #DADCE9",
"d  c #F9F9FB",
"f  c #FFE4DF",
"g  c #001B78",
"h  c #E31B15",
"j  c #0B2076",
"k  c #E6231C",
"l  c #DF211E",
"z  c #E22420",
"x  c #E63E39",
"c  c #E63C37",
"v  c #000160",
"b  c #31438B",
"n  c #727DAE",
"m  c #EA615D",
"M  c #1B2F80",
"N  c #FAF5F4",
"B  c #5A67A1",
"V  c #7B85B3",
"C  c #213684",
"Z  c #465596",
"A  c #CBCEDF",
"S  c #030202",
"D  c #E63E3A",
"F  c #3B4B8F",
"G  c #066A3D",
"H  c #858EB9",
"J  c #E1E2EC",
"K  c #0A784D",
"L  c #B0B5D0",
"P  c #FCEDEC",
"I  c #FBFFFF",
"U  c #6874A9",
"Y  c #246E47",
"T  c #969DC2",
"R  c #A1A8C8",
"E  c #D1D6E5",
"W  c #0F1A6E",
"Q  c #BABED5",
"!  c #C3C6D8",
"~  c #8E95BC",
"^  c #4F5E9B",
"/  c #2B3C85",
"(  c #BDAEA9",
")  c #E6E9EF",
"_  c #DD1713",
"`  c #2E8969",
"'  c #36195C",
"]  c #F01A0F",
"[  c #6C1E4B",
"{  c #EAEAF2",
"}  c #C32028",
"|  c #130E5F",
" . c #2C2A28",
".. c #F5F1EF",
"X. c #A52A3F",
"o. c #D4ECE4",
"O. c #471752",
"+. c #EF2218",
"@. c #653E30",
"#. c #E81C14",
"$. c #F5E6E2",
"%. c #615E5E",
"&. c #C94A53",
"*. c #961C38",
"=. c #F44A41",
"-. c #DF3D3C",
";. c #766E84",
":. c #489B80",
">. c #E02D2A",
",. c gray56",
"<. c #C7BDB6",
"1. c #755042",
"2. c #FF2210",
"3. c #7E1F44",
"4. c #BC303C",
"5. c #F63F34",
"6. c #F12D23",
"7. c #74B29B",
"8. c #DBD5D2",
"9. c #494747",
"0. c #7A5447",
"q. c #FA584C",
"w. c #A5C3C7",
"e. c #8A2647",
"r. c #60AD92",
"t. c #F76960",
"y. c #751D46",
"u. c #FFFBFF",
"i. c #EB342D",
"p. c #F91CFF",
"a. c #F5FFFD",
"s. c #FFFD6F",
"d. c #FE1572",
/* pixels */
"% % % % % % % - ; + # # # # + + # @ o + o # @ # + # o o + # + + # + + o o # o + # # # # + + o # # + # # # o # ; , % % % % % % % ",
"% % % % % % % - + , , X # , o o @ o # + @ o # # o o # @ , X # , o o # + + o + o @ + o o o , , X o , @ o o o o ' , % % % % % % % ",
"% % % % % % % - + ; 7 Z y 7 # o # # # # o o # # o + o X 7 Z - e o # o o o # + # o # # # o X 7 Z t 7 o # # g < *.4 % % % % % % % ",
"% % % % % % % - X C b A V b j # # o o o o o @ # o o X C F A V b j + # o # # # # # @ # o X C F E n b j + g [ 2.< 4 % % % % % % % ",
"% % % % % % % - X C !     V + # @ # # @ o # o + # @ X C A   9 n ; o o # o # o @ @ o @ o X C A   r n + g [ +.+.< 4 % % % % % % % ",
"% % % % % % % - , 7 U r s j X , o o @ o @ @ o o o o j 7 n O s , X , @ @ o + o o # # # + , 7 n 9 E # e [ +.l +.< g % % % % % % % ",
"% % % % % % % - ; X B M Z b X + X X X X X X X X X X X X B - Z / 0 X X X X X X X o @ # # @ + B y ^ M ;.6.5 l = < 4 % % % % % % % ",
"% % % % % % % - ; , 0 X 0 ; o - - - M M M - - y y y y y j - j - y y y y y y y M o @ o o @ , 0 o v U f z 2 8 = < g % % % % % % % ",
"% % % % % % % - + o , , , o , A u.d o.E J d d { i i i i i i i i i i i i i i d B 0 , @ o o o j e U   a 8 2 l = < 4 % % % % % % % ",
"% % % % % % % - ; @ o @ o # o { o.:.Y K K :.o.                              n e , @ o # o j 7 B     a u 2 8 = < 4 % % % % % % % ",
"% % % % % % % - + o + o @ ; - w.Y G Y G K G Y o.  * r r r r r r r r r *   n 7 , + @ o # , 7 B   . $ a u 2 l = < 4 % % % % % % % ",
"% % % % % % % - ; o o # o X y ` G Y K Y Y K G r.  * 9 9 9 9 9 9 9 r r   n e , o @ o @ , e ^     *   a u 2 8 = < 4 % % % % % % % ",
"% % % % % % % - + o @ # @ ; y :.G K Y K K Y G 7.  * 9 9 9 9 9 9 r r   V 7 , o # o # , X F O   r .   a u 2 8 = < 4 % % % % % % % ",
"% % % % % % % - + @ @ @ o ; j ! ` G G K G G ` )   r 9 9 9 9 9 r *   H 7 , , o # o # 4 O.p   * 9 .   a u 2 l = < 4 % % % % % % % ",
"% % % % % % % - ; o # @ @ @ o J d 7.` K ` ` i   * 9 9 9 9 9 9 *   H 7 / j X o o # g ' 3 p $ . 9 .   a u 2 8 = < 4 % % % % % % % ",
"% % % % % % % - ; o @ # o # , s     ..0.N %.S ,.  r 9 9 9 9 *   ~ ; ; L Z # j , g ' z 3 m   . 9 .   a u 2 8 = < 4 % % % % % % % ",
"% % % % % % % - + o o o o @ , s   * N @.8.%.S ;.  d 9 9 9 *   T 7 F A r i H , X ' l k _ m   . 9 .   a u 2 8 = < 4 % % % % % % % ",
"% % % % % % % - + @ @ # o o , s   $ N @. . .S <.  * 9 9 *   T e j 7 n   { t e b >.#.z 3 m   . 9 .   a u 2 8 = < g % % % % % % % ",
"% % % % % % % - + # @ @ @ # , s   $ N @.S S S ,.  d 9 d   R e o , 0 n ^ H M / $.i.w & 3 m   . 9 .   a u 2 8 = < 4 % % % % % % % ",
"% % % % % % % - + o o X # o , s   $ ..0.9.S S  .N   d   R e # o # , @ 0 7 b d N >.5 & 3 m   . 9 .   a u 2 l = < 4 % % % % % % % ",
"% % % % % % % - + @ ; y j ; , s     ..0...9.S S ,.    R 0 @ , + o # , 0 / i   q 6 5 z 3 m   . 9 .   a u 2 l = < 4 % % % % % % % ",
"% % % % % % % - ; j v T F 7 j s   9 ..1.N ( S S %.  L 0 # , o o o , e C i   I P 6 5 & 3 m   . 9 .   a u 2 8 = < 4 % % % % % % % ",
"% % % % % % % y 0 b Q d J H t s     * 0.N i S  .  L 0 # , + # o , 0 C )   d   q 6 5 & 3 m   . 9 .   a u 2 8 = < g % % % % % % % ",
"% % % % % % % - # e V   d C ; J N 8.<.@.( $.%. .L ; X , # o o , ; y J   d .   q 6 5 & 3 m   . 9 .   a u 2 8 = < 4 % % % % % % % ",
"% % % % % % % - # e n V T / X J $.( ( ( ( ( <.;.7 @ , # @ o # g | &.  * 9 .   q 6 5 & 3 m   . 9 .   a u 2 l = < 4 % % % % % % % ",
"% % % % % % % - ; , - e ; t , s             E - ; , o # o # @ W } =.I 9 9 .   q 6 5 & 3 m   . 9 .   a u 2 l = < g % % % % % % % ",
"% % % % % % % - + # ; , o X , s   d * d   ! + o j , o @ o @ W } ] >   . 9 .   q 6 5 z 3 m   . 9 .   a u 2 8 = < 4 % % % % % % % ",
"% % % % % % % - + @ @ + o @ , s   r d   A , v H b v , , @ W } +._ >   . 9 .   q 6 5 & 3 m   . 9 .   a u 2 8 = < g % % % % % % % ",
"% % % % % % % - ; o # o o # , s   d   E o b R i A V t 0 - 4.+.8 1 >   . 9 .   q 6 5 & 3 m   . 9 .   a u 2 8 = < g % % % % % % % ",
"% % % % % % % - + # o # o # , s     E t X ; ~   * F 0 j A =._ & 1 >   9 9 .   q 6 5 & 3 m   . 9 .   a u 2 l = < g % % % % % % % ",
"% % % % % % % - + @ + o @ o , E   s - 0 j 7 n T L M X A   -.h & 1 >   . 9 .   q 6 5 & 3 m   . 9 .   a u 2 l = < 4 % % % % % % % ",
"% % % % % % % - + o o o o # # { ) - 0 , + o M e o y !   N D h & 1 >   . 9 .   q 6 5 & 3 m   . 9 .   a u 2 8 = < 4 % % % % % % % ",
"% % % % % % % - ; # @ # o ; t Q C 0 , o o o X @ + Q   * : D h & 1 > $ . 9 .   q 6 5 z 3 m   . 9 .   a u 2 8 = < 4 % % % % % % % ",
"% % % % % % % - ; + + # # + j t 0 , # + o o ; X Q   d   : x w & 1 >   . 9 .   q 6 5 & 3 m   . 9 .   a u 2 8 = < g % % % % % % % ",
"% % % % % % % - + @ # o o # # ; , o o o + o @ L   d 9 $ : x w z 1 >   . 9 .   q 6 5 & 3 m   . 9 .   a u 2 l = < 4 % % % % % % % ",
"% % % % % % % t X o # # @ # # o @ o + # @ 0 X.O I 9 . $ : D h & 1 >   . 9 . $ q 6 5 & 3 m   . 9 .   a u 2 l = < 4 % % % % % % % ",
"% % % % % % % - ; o # # # + o + o o # # g *.5.N $ . . $ : x w z 1 >   . 9 .   q 6 5 & 3 m   . 9 .   a u 2 8 = < g % % % % % % % ",
"% % % % % % % - + + o o + o # # + o o g *.] -.: $ . . $ : x w & 1 >   . 9 .   q 6 5 z 3 m   . 9 .   a u 2 8 = < 4 % % % % % % % ",
"% % % % % % % - ; , , ; + , # @ o @ @ < = _ c : $ . . $ : x h & 1 >   . 9 .   q 6 5 z 3 m   . 9 .   a u 2 8 = < 4 % % % % % % % ",
"% % % % % % % - # ; v B M v o o + @ e.= 8 w c : $ . . $ : x h & 1 >   . 9 .   q 6 5 & 3 m   . 9 .   a u 2 8 = < 4 % % % % % % % ",
"% % % % % % % - 0 / B s T ^ t # e T q._ & h c : $ . . $ : x w z 1 >   . 9 .   q 6 5 & 3 m   . 9 .   a u 2 8 = < 4 % % % % % % % ",
"% % % % % % % y X y L     U ; e ~   > 1 & w c : $ . . $ : D w & 1 >   . 9 .   q 6 5 & 3 m   . 9 .   a u 2 l = 3.4 % % % % % % % ",
"% % % % % % % F X 7 U J E - 7 ~   I > 1 & h c : $ . . $ : D h & 1 >   . 9 .   q 6 5 & 3 m   . 9 .   a u 2 8 = O.C % % % % % % % ",
"% % % % % % % H e @ Z o b y V   * $ > 1 z h c : $ . . $ : D w & 1 >   . 9 .   q 6 5 & 3 m   . 9 .   a u 2 u 8 | U % % % % % % % ",
"% % % % % % % ) - + 0 @ 7 V   * r   > 1 & w c : $ 9 . $ : x w & 1 >   . 9 .   q 6 5 & 3 m   . 9 .   a u l = y.4 E % % % % % % % ",
"% % % % % % %   ~ 7 t 0 V   * r . $ > 1 & w c : $ . . $ : x h & 1 >   . 9 .   q 6 5 & 3 m   . 9 .   a 8 = X.7 n   % % % % % % % ",
"% % % % % % % r   B v Z   $ * 9 . $ > 1 & w c : $ . . $ : D w & 1 >   . 9 .   q 6 5 & 3 m   . 9 . I a = X.7 F O O % % % % % % % ",
"% % % % % % % r   O B 7 U O   d .   > 1 & h c : $ . . $ : D w z 1 >   . 9 .   q 6 5 & 3 m   . 9 d   f [ e ^ d   r % % % % % % % ",
"% % % % % % % 9 r O   T 7 / J   d $ > 1 & w c : $ . 9 $ : x w z 1 >   . 9 .   q 6 5 z 3 m   * d   i F e H     r 9 % % % % % % % ",
"% % % % % % % 9 9 r *   E y 0 L   $ > 1 & w c : $ . . $ : x w & 1 >   . 9 .   q 6 5 & 3 m $ *   ! , , !   r r 9 9 % % % % % % % ",
"% % % % % % % 9 9 9 9 d   d ^ v n   > _ & h c : $ . . $ : D h & 1 >   . 9 .   q 6 5 & 3 m     H v F i   d r 9 9 9 % % % % % % % ",
"% % % % % % % 9 9 9 9 9 *     ~ v F &.] 8 w c : $ . . $ : x w z 1 >   . 9 .   q 6 5 & _ t.a.Z v V     d 9 9 9 9 9 % % % % % % % ",
"% % % % % % % 9 9 9 9 9 9 r r   A t v X.= w c : $ . . $ : x h & 1 >   . 9 .   q 6 5 8 ] &.M 0 Q   r * 9 9 9 9 9 9 % % % % % % % ",
"% % % % % % % 9 9 9 9 9 9 9 9 d   i Z e [ #.c N   . . $ : D w z 1 >   . 9 .   q >.#.+.3.7 b )   d r 9 9 9 9 9 9 9 % % % % % % % ",
"% % % % % % % 9 9 9 9 9 9 9 9 9 *     H ; ' -.O I . 9 $ : D h & 1 >   . 9 . $ q 6.l O.0 n     d 9 9 9 9 9 9 9 9 9 % % % % % % % ",
"% % % % % % % 9 9 9 9 9 9 9 9 9 9 r r   Q - 0 !   r *   : x w & 1 >   . 9 * I N 4.| 4 L   9 * 9 9 9 9 9 9 9 9 9 9 % % % % % % % ",
"% % % % % % % 9 9 9 9 9 9 9 9 9 9 9 9 d   { F v H     * : x w & 1 > $ 9 *     T 7 b J   d r 9 9 9 9 9 9 9 9 9 9 9 % % % % % % % ",
"% % % % % % % 9 9 9 9 9 9 9 9 9 9 9 9 9 *     V v Z N   N x h & 1 >   d   : B v U O   d 9 9 9 9 9 9 9 9 9 9 9 9 9 % % % % % % % ",
"% % % % % % % 9 9 9 9 9 9 9 9 9 9 9 9 9 9 r 9   Q X t A   D w & 1 > I   s M e R   O * 9 9 9 9 9 9 9 9 9 9 9 9 9 9 % % % % % % % ",
"% % % % % % % 9 9 9 9 9 9 9 9 9 9 9 9 9 9 9 r d   ) b 7 ~ 5.h z _ >   R 7 C s   * r 9 9 9 9 9 9 9 9 9 9 9 9 9 9 9 % % % % % % % ",
"% % % % % % % 9 9 9 9 9 9 9 9 9 9 9 9 9 9 9 9 9 d     n 7 O.8 +.#.> U v B 9   d 9 9 9 9 9 9 9 9 9 9 9 9 9 9 9 9 9 % % % % % % % ",
"% % % % % % % 9 9 9 9 9 9 9 9 9 9 9 9 9 9 9 9 9 9 * O   L 4 | } } | e T     * 9 9 9 9 9 9 9 9 9 9 9 9 9 9 9 9 9 9 % % % % % % % ",
"% % % % % % % 9 9 9 9 9 9 9 9 9 9 9 9 9 9 9 9 9 9 9 r *   s b e e C E   * r 9 9 9 9 9 9 9 9 9 9 9 9 9 9 9 9 9 9 9 % % % % % % % ",
"% % % % % % % 9 9 9 9 9 9 9 9 9 9 9 9 9 9 9 9 9 9 9 9 9 d   O ^ Z d   d 9 9 9 9 9 9 9 9 9 9 9 9 9 9 9 9 9 9 9 9 9 % % % % % % % "
};
