/* XPM */
static char *_695579117559[] = {
/* columns rows colors chars-per-pixel */
"64 64 71 1 ",
"  c white",
". c #FFFFF9",
"X c #FFFFFE",
"o c #002F85",
"O c #002E82",
"+ c #FCFDFD",
"@ c #003384",
"# c #023A88",
"$ c #033B8B",
"% c #063D8C",
"& c #013786",
"* c #063D89",
"= c #F2F4F6",
"- c #002A80",
"; c #F5F7F7",
": c #013789",
"> c #D9E3E6",
", c #6689B2",
"< c #D5DEE4",
"1 c #6282AE",
"2 c #567CAB",
"3 c #8CA7C4",
"4 c #C1CEDA",
"5 c #83A1C1",
"6 c #FAFAF7",
"7 c #37619B",
"8 c #2E5D9A",
"9 c #CEDBE2",
"0 c #5C7CAB",
"q c #9CAFC9",
"w c #92ADC8",
"e c #A4B8CD",
"r c #7896BB",
"t c #A8BED1",
"y c #7E99BB",
"u c #436BA3",
"i c #E0E7E6",
"p c #6C8DB7",
"a c #5177A9",
"s c #BACCD7",
"d c #B1C1D1",
"f c #3E669F",
"g c #D0D7DE",
"h c #4D72A5",
"j c #B2C6D7",
"k c #FCFCFA",
"l c #275697",
"z c #10428C",
"x c #839BBD",
"c c #7590B7",
"v c #C5D1DD",
"b c #4671A6",
"n c #E7EDEA",
"m c #E9EFF1",
"M c #8C9FBF",
"N c #C9D5DD",
"B c #F5F6F2",
"V c #EFF1ED",
"C c #1A4B91",
"Z c #BAC6D6",
"A c #5A83B1",
"S c #E2E9ED",
"D c #9BB5CB",
"F c #7089B3",
"G c #96A8C3",
"H c #4A6DA2",
"J c #205193",
"K c #16478F",
"L c #FDFBF3",
"P c #7093B9",
"I c #002179",
/* pixels */
"                    ++   mj5p002011Pxq4m   ++                   ",
"                 X+   St5cxqd44vNgvsdqyFF3>   +XX               ",
"                ++ +jcce9vd51u8JJl8H,5dNvM0Fjk ++               ",
"              X+  sFGgg3u%O-Oo@::@@ooO@zbq<Nx0t  +              ",
"            X++ v,3>sa$-@&#%**$$%*#*%%*&O-%AN>y09 ++            ",
"            +  y0<4f@@$%%###$%%%%%**$###%%:o&h9g0xX +           ",
"          Xk =,Gi,@o*%$$#**$:@oOOO@@&***#$$**o&rnx2m k          ",
"          k <1N4C-%%##**#@O:C7H010H7C&-@:%$##%$Ol9ZH9 +         ",
"         + daiwO&%#$#*&O*uG494dtttd4943f&O&*##$%&@t<fv k        ",
"        k dfmPO$*##*#-KM9v5aba1,,10hH2399r*O%$##*#O3nfv +       ",
"       + 9Hnr-*###%O*r>eaHrZS6.X X.;idFh0d<F:@$##*%O3iH> +      ",
"      + =u>3O%##**O794bad6X.6;==;;=;6..Bdha9NlO%*#%%ODNH6X+     ",
"     XkX1jdO%#$$$o,V,7s..;=;.X....XX.6=6.Ld7yV2o*##*$@4qF +     ",
"     + qpnz&*##$O5n7c6.==.XntxFA21p5j=.k=;XB1bVF-%$**@CV0j +    ",
"      manho*##$O5>lq.B=k.4,a,rxMMMyr0bP9X6=6.x7mFO*#&*Opi06     ",
"    + yejO*##%-,nleX==.>,Hy3pulKKClbP3cHPn.=;.MuVho*##*@NMw +   ",
"   + S2nl@*#*:7BfqX=B.t7ywf&Oo@::::oo*Hwc74.B=XyaVJ@$#%obn0=X   ",
"   + 5tD-*###%<pp.=B.3fthO@%*#**$$%%%$O@1t8t.=;.awsO$$#$@sGt +  ",
"    ;2ifo%#%o547B6=.3fjlO**#$$@oz*o&##$*-7j7j.=LS8<0O%&*o29c +  ",
"    jyv@$$#&KSht.=.s7jCo%###%&2udGf2@*##%O8t7<L=.M,9&$##:z9yS   ",
"    xsp-%$%-yZh.;;VfD8O%###$%ow.Vn.,O%###*-aGbk;;Bu92O%#*O3dt   ",
"   ;p>l@##$%<0D.=.xPp-*##**#:IA 3e aO%%%##%-51D.=XMP4@$$%@u<y   ",
"   9cg*##*@fium66Sue**##*@O*8f,d7, p-o@@@#$:CehB;k<bil@*$:K>rm  ",
"   txeO*#*-5d,X=XG,,O%#:@fq<gsqwtP6D71fff#$%-r2t.=62N1o%$$&sM4  ",
"   3ex-%$*OjrwX=.13l@*&*3.N2K&yyzK9g2sV.N&#%@f5p.=XxwDO$$%-weq  ",
"   r41o%$#*90ZX;V2D#%#$t.3&OoJ.tOO3LCO8t>K&$#zq0B;.t,4@$$%-P43  ",
"   p9ho%*&C<h>kk<05o%O3 wO$%O,.1@@b.0O@O2J&#*:w0SkX4A>%&*%OA93  ",
"   2<f@**@l>hS6X4,rOOr.sC:%%:ZL8@&J6qO%$@###*o519.k<a>K:$%ob<r  ",
"   A<fo%#@8>hm6XZpc-x.3@#*$@8=.3O@q.g*#**###*oy,v..>a>C:$%Ou<c  ",
"   2<u@$#@l>bS6Xv,r-3.c-%#*Ow.S.1yLvB7@*##$#*OyA9k.<a>K&$%Ob<5  ",
"   0ghO*$&C>h<kk<2MO@PLM:*&lVgJ4L.r8XcO%$###$@w0ik.42<*:$$O2gw  ",
"   p4FO*##*g0jX;V2q##owLK#@M.1IJnd@*>Z:&#$#$:zw16;.epv@##*Oc4M  ",
"   5eM-*&#ojxwX=.F3l&#%vG-lV>z$@7J&@w.C7K:#$@f5rX=X5wqO*#*Owtw  ",
"   j3ZO%&#-rZ,X=XqAFO%&KwJD xO*%&:%O8Pcx$$$%o52Z.;L2N1O*#%@45j  ",
"   <p<*$#*@fiHS66VuDz#$#I2L=Hz$Oo@&Kuy,@:$*&JeaL;6<Hil&#*:Kip>  ",
"   +p<7@%$#$91q.=XG,c-%&8m.Z755xry35124hO$*-30t.=.rrZO*#$@u>pX  ",
"    5sy-%$%OP4uL;;BuqfO$A5>G-#C878J*Ix.q&%-13a.=;Vu<ao*#%-3d5   ",
"    ZPN&$$#&zi0e =.g7dl@%I1,O*:@@@@%OP,KK-ft7i6=.5c<@##$**>cv   ",
"   +62>H@*$%opg7=6=.e7d8-%%z$$$####%&8Co-ud84.=6i8i2O%#%Oa>p +  ",
"   k wDeo*$#*:vMA.;B.e8e,OO#%%$#$##*%:O&rw8s.=;.bDj@*#$$@sqt +  ",
"   X m2i7@$#*@8VH5.==.47rGh*-o@&:&@OOz2wpu9.=6.P1mC&$$%Obn1;X   ",
"   X+ Mq4O*##*OABfw ==.nFHy3ca7JCl72r3cuxBk=;.5HBHO%#$$@N33 +   ",
"     X;2i0O*###I,>75X6=6X<ra1cy5MMyPahMi ;=L.rHVAO%#$%O,i06XX   ",
"     + dAVC@%$zupiBH2m ;=6XVvqyFFFyqvVXk=;XSa0VAO%$$%@JV1j +X   ",
"      k xDv&@unvraAmM8DkX6=;X  X X Xk;=6 ;G7GVHO*##*##Nwx +     ",
"      XX.pNeI2>GfI-l4ghbDm. .B;==BB;kX.nwu1<sJo%$#$#Ot4pXXX     ",
"       XX6p>ybqzdyKO@,V40f,t9m6...6m9e,fAv<A@&*##*$Oq<Pk        ",
"        k SA99G-#5VZ*KiGs<eFHHa202hHH1e<N,*O$%*$%:@ei1m +       ",
"         + <h<g%o*jZ@qDI&7yjgg4ZjZv9gLD8&O#:lh&$Ozs9hS +        ",
"          k >at<7-#@8LMlz-II&J>euhuCpnzo%%#:@:Ozhid1S +         ",
"           k ;1xVx*IeiNniZM088i8-@oOsqI@@#K8hcenBy,+ +          ",
"            kXX5hggci8O81Gs>iVg*@::CV<d4N<<g<XXshG X+           ",
"             ++ 90,>V,z-I8J%Ksq-cbI1nxw5,aa3>v1,< +X            ",
"               + Xt0,sgq07*--91-fl-j3I-z2qNdF1Z  +              ",
"                ++ XZ,1GsNsGMnKo&-JLdqN>v3Ac4  ++X              ",
"                  +X  >q12rw4q8hj7ajtwrpPeS  ++                 ",
"                    ++   =v2zC9LB.DC8r>;  X++                   ",
"                      X+X=sgG3Ds.te>Let ++                      ",
"                         Sjj4Be2j8i5N35X                        ",
"                        XXm9t>yurrDAs>;X                        ",
"                            =jV<>Xe3                            ",
"                          X+ 9jNeD<m +                          ",
"                            +Xjv;5> +                           ",
"                            X+ Xm>k+                            "
};
