/* XPM */
static char *_695579710223[] = {
/* columns rows colors chars-per-pixel */
"64 64 68 1 ",
"  c #182168",
". c #B74232",
"X c #B23928",
"o c #BB4231",
"O c #FEFDFD",
"+ c #FEFFFE",
"@ c #172066",
"# c white",
"$ c #BA4231",
"% c #1A236A",
"& c #BC4533",
"* c #0A125B",
"= c #9B9B9B",
"- c #242B6B",
"; c #141D64",
": c #1F286A",
"> c #FBFBFB",
", c #0A1360",
"< c #0F1764",
"1 c #1E2060",
"2 c #ECDCD8",
"3 c #141E69",
"4 c #B24234",
"5 c #C04330",
"6 c #10185F",
"7 c #B33623",
"8 c #040A55",
"9 c #E2C0BC",
"0 c #E3C7C2",
"q c #D8A79F",
"w c #484E7F",
"e c #A6413A",
"r c #5C628E",
"t c #202666",
"y c #373D75",
"u c #2D336E",
"i c #6F7499",
"p c #C3C7D3",
"a c #A3A7BD",
"s c #F7F8F7",
"d c #3F467B",
"f c #636994",
"g c #D3D6DD",
"h c #8387A6",
"j c #777C9F",
"k c #545986",
"l c #73374E",
"z c #E5E9EC",
"x c #B4B8C8",
"c c #8B8FAC",
"v c #EFF3F3",
"b c #ACAFC0",
"n c #DDE0E6",
"m c #9398B1",
"M c #8B3C44",
"N c #D9ACA2",
"B c #A0A0B2",
"V c #442B57",
"C c #2F2760",
"Z c #4B254A",
"A c #F7E8E0",
"S c #EAD9D5",
"D c #582D4B",
"F c #C49E9D",
"G c #D1B1B1",
"H c #9E3F3B",
"J c #CBAAA6",
"K c #FFFFFF",
/* pixels */
"                                                                ",
"                                                                ",
"        ##zafy1,*,<3 %%%%  %%8ww8%    %%%%@@<,**1yfaz##=        ",
"        +ct**< %%%%         -ippi-@         %%%%%<**:c+=        ",
"        h83y @%             ;f##r;@             ;-u;38h=        ",
"        u-ybu-    %        %6waad6        %%%  : ic@-;u=        ",
"        1kg#pw3%%3<         ;u;1u;       @**<  @hv>B-;-=        ",
"        -8a#m8 *@uw:         @  3      %<kahw;%;-z>w* -=        ",
"        :%iyi3ybgv#k8% % @           %%:8j#zw;%<wrwk< -=        ",
"        : 6<;<f####nd6;6;%%%%   @%%%%<6*wsbt<%   <<; 3-=        ",
"        :3% :,r#>Os##pmpd86<*; @:6*68hpp+h*;%    %%311:=        ",
"        :3@@%,r#>##zxrk#zjkwjw;,jpfkB+#vk8%%      3VM1:=        ",
"        :3@@%,r#+zmy*8i#O#nv#j66j#####pu,%       ;D4e1-=        ",
"        :3  %,r##z1,:%g##cuv#i,,j#s##m6;%     %31l&5e1-=        ",
"        :3  %,r#s#j,:6p#g*i##i,,j##vf*%%   @ %,CM5$oe1-=        ",
"        :3  %,r#s#a,:6kvk8x##i,,j#gy6:%%   %%8fF7o.5e1-=        ",
"        :3  %,r#s#b*%%6:6tz##i,,jx1<8i:, @%36h#N7&.5e1-=        ",
"        :3  %,r#s#B*% % <k#>#i* u;<dcnbr@:<-x##q7&.5e1-=        ",
"        :  ;%,r#s#j*%  %*b#s#i*%; %;B#gu@,wn#s#q7&$5e1-=        ",
"        :3;d;*r#O+d6% %<i#>O#f,%  %,jmm@6i>#>O#q7&$5e1-=        ",
"        tudxytr##g1@  ;ws>##h@%     u*--lA#>+>#q7&.5e1-=        ",
"        @wg#gyr##c*% %<w>#vr*      @;%CM.S#O#O#q7&$5e1-=        ",
"        -8BOm8f#sy3% :*h#pu,:       3Ve542#O#O#q7&.5e1-=        ",
"        t:r-f<r#h*% %<-va1<%@    %3;l&5$42#O#O#q7&.5e1-=        ",
"        :363;*r#f<%%3-xj83: @   %<1M&$.o42#O#O#q7&.5e1-=        ",
"        :@%%:*r#sy<%6wk8yd*@   %*wF$.$$o42#O#O#q7&.5e1-=        ",
"        :3  %*r##i,% ;1waaw-;% *i+0X&$$o42#O#O#q7&.5e1-=        ",
"        :3  %*r##c*%%%%j##h@%;1a#+9Xo.$o42#O#O#q7&.oe1t=        ",
"        :@  %,r##h,% %<yppy<6up#>#9Xo.$o42#O#O#q7&.5e1-=        ",
"        :@  %*r#pu3   ;du-d*kv#>O#9X$$$o42#O#O#q7&.5e1-=        ",
"        :3  %*fB*;     ;@@;D0#>#O#9X$$$o42#O#O#q7&.5e1-=        ",
"        :3    :6 %     %31MX0#O#O#9X$$$o42#O#O#q7&.5e1-=        ",
"        :3     %%      3CH5X0#O#O#9Xo.$o42#O#O#q7&.5e1-=        ",
"        :@ %        % ;D45&X0#O#O#9X$$$o42#O#O#q7&.5e1-=        ",
"        : %;%%     %<1l&o.&X0#O#O#9X$$$o42#O+O#q7&.5e1-=        ",
"        :<6r*<    %*yb&..$&X0#O#O#9X$.$o42#O#O#q7&.5e1-=        ",
"        tdjgid; %%,kvA.o$$&X0#O#O#9X$$$o42#O#O#q7&.5e1-=        ",
"        tyg#pu@%3*h##S.o$$&X0#O#O#9X$$$o42#O#O#q7&.5e1-=        ",
"        -*mpc8:6tx#>#24o$$&X0#O#O#9Xo.$o42#O#O#q7&.5e1-=        ",
"        t:d,d:<dn#>O#2.o$$&X0#O#O#9Xo.$o42#O#O#q7&.5e1-=        ",
"        :3;%;;ZG#s#O#2.o$$&X0#O#O#9X$$$o42#O#O#q7&.5e1-=        ",
"        -3%@1lXN#O#O#2.o$$&X0#O#O#9X$.$o42#O#O#q7&.5e1-=        ",
"        y;@CM&7N#O#O#2.o$$&X0#O#O#9X$$$o42#O#O#q7&.5H1u=        ",
"        r,Ve&.7N#O#O#2.o$$&X0#O#O#9X$$$o42#O#O#q7&.5l,r=        ",
"        a,V.$.7N#O#O#2.o$$&X0#O#O#9X$$$o42#O#O#q7&$&V,a=        ",
"        sy,l5$7N#O#O#2.o$$&X0#O#O#9X$$$o42#O#O#q7.5l6yv=        ",
"        #x*1M57N#O#O#2.o$$&X0#O#O#9X$$$o42#O#O#q75Mt*x#=        ",
"        >#h81lXN#O#O#2.o$$&X0#O#O#9X$$$o42#O#O#qXl%*h#>=        ",
"        #>#c<6ZG#>#O#2.o$$&X0#O#O#9X$.$o42#O#>#JZ<*c#O#=        ",
"        #>>#x-*dg#OO#2.o$$&X0#O#O#9X$$$o42#>>#gy,-x#>O#=        ",
"        ###>#nw8ta###2.o$$&X0#O#O#9X$.$o42#O#a18wn#>+#O=        ",
"        ####>#>j**j>#S4o$$&X0#O#O#9X$$$o4S#>j**js#>##++=        ",
"        #####>##at8wzA4o$$&X0#O#O#9X&$$o4Azw8ta#O>O####=        ",
"        #####O>s#gd8uB&o.$&X0#O#O#9X&$.o&Bu8dg#sO#O####=        ",
"        #####+OO>#vf*6l45.&X0#O#O#9Xo.o.l68fv#>>O#+####=        ",
"        #########>##m;<Ve5$X0#O#O#9X.5eV,6m#>s#OO######=        ",
"        ##########OO#pu,CM5X0#O#O#9X5MC,up#s>O+#+######=        ",
"        ############>#zk*1l.0#O#O#9Xl18kz#ss+##########=        ",
"        ############+>##h*;Z0#s#>#0Z;*h##s>>+##########=        ",
"        ##############O##x-*dg#>#gd*-x#>O##############=        ",
"        ################>#nw8tb#bt8wn#s>###############=        ",
"        #################>#si86k;8is#>O>###############=        ",
"        ##################>O#at8ta#>sO>>###############=        ",
"                                                                "
};
