/* XPM */
static char *_695579406737[] = {
/* columns rows colors chars-per-pixel */
"64 64 135 2 ",
"   c #4C4C96",
".  c #59599D",
"X  c #FFFEFD",
"o  c #DB5141",
"O  c #DB4F3C",
"+  c #DB503E",
"@  c #484897",
"#  c white",
"$  c #9B9B9B",
"%  c #DB5240",
"&  c #F3E537",
"*  c #4B4B95",
"=  c #E9A71F",
"-  c #968D58",
";  c #F3DF0D",
":  c #F0C0B9",
">  c #A4984C",
",  c #4A4B96",
"<  c #F5E325",
"1  c #ECA298",
"2  c #DD5B49",
"3  c #F8DAD5",
"4  c #E78B7D",
"5  c #DF6959",
"6  c #FBEBE9",
"7  c #525299",
"8  c #FAF9FA",
"9  c #E1E1ED",
"0  c #4A4A95",
"q  c #FCF5F4",
"w  c #DEDEEA",
"e  c #E07367",
"r  c #484894",
"t  c #6A69A7",
"y  c #5E5E9F",
"u  c #9E9DC4",
"i  c #F1DE18",
"p  c #6262A2",
"a  c #FEFEF6",
"s  c #F4E54A",
"d  c #7272AC",
"f  c #7C7CB1",
"g  c #37765E",
"h  c #B1B1CF",
"j  c #D2D4E3",
"k  c #EEE9E6",
"l  c #2F2E2E",
"z  c #CCCDDF",
"x  c #E27D70",
"c  c #FBF7C6",
"v  c #A6A6C9",
"b  c #514A90",
"n  c #F5E95F",
"m  c #8E8EBB",
"M  c #9797C0",
"N  c #EFD614",
"B  c #B9B9D4",
"V  c #C2C2D9",
"C  c #EBECF1",
"Z  c #F8EF94",
"A  c #FDFAE6",
"S  c #8785B4",
"D  c #F9F2A4",
"F  c #F2F2F4",
"G  c #2C785F",
"H  c #227A60",
"J  c #615E5D",
"K  c #F7EB7B",
"L  c #FAF3B4",
"P  c #F6EA6D",
"I  c #FEFDEF",
"U  c #FDFAE0",
"Y  c #478F7A",
"T  c #A14D61",
"R  c #F2E131",
"E  c #F2E01F",
"W  c #DC5B3D",
"Q  c #4B4B99",
"!  c #83B5A7",
"~  c #F2E025",
"^  c #FCF9D6",
"/  c #EACE13",
"(  c #DBDBE8",
")  c #E9BE17",
"_  c #F3E22B",
"`  c #866455",
"'  c #C9B9B2",
"]  c #BD5153",
"[  c #7E4C75",
"{  c #644A84",
"}  c #D05247",
"|  c #F7EE88",
" . c #55927F",
".. c #DF7335",
"X. c #CFC3C3",
"o. c #D5D7D4",
"O. c #917466",
"+. c #E49527",
"@. c #9C5167",
"#. c #E4885B",
"$. c #DAE9E5",
"%. c #F2DF0D",
"&. c #B1B2B2",
"*. c #757373",
"=. c #AFC1C9",
"-. c #77689C",
";. c #E37D71",
":. c #E28534",
">. c #C5B72E",
",. c #D7E8E3",
"<. c #619392",
"1. c #947B94",
"2. c #959595",
"3. c #C5BEBB",
"4. c #E2DEDB",
"5. c #B9B070",
"6. c #AB6F83",
"7. c #E4A29C",
"8. c #EDA297",
"9. c #F3DB81",
"0. c #F1CDAE",
"q. c #EAA94F",
"w. c #E5C7C9",
"e. c #8C8560",
"r. c #6D6979",
"t. c #444545",
"y. c #3E3F3F",
"u. c #53739C",
"i. c #F18D58",
"p. c #ECA2BB",
"a. c #E495BB",
"s. c #D24C96",
"d. c #F64C9D",
"f. c #4C59FD",
"g. c #59FE41",
/* pixels */
"$ $ $ $ $ $ $ _ %.; ; ; ; ; ; ; ; ; ; ; ; ; ; ; ; ; ; ; ; ; ; ; ; ; ; ; ; ; ; ; ; ; ; ; ; ; ; ; ; ; ; ; ; ; %.%.& $ $ $ $ $ $ $ ",
"$ $ $ $ $ $ $ < >.- - - - - - - - - - - - - - - - - - - - - - - - - - - - - - - - - - - - - - - - - - - - - - ) & $ $ $ $ $ $ $ ",
"$ $ $ $ $ $ $ < > @ @ t . @ @ @ @ @ @ @ @ @ @ @ @ @ @ @ @ d 7 @ @ @ @ @ @ @ @ @ @ @ @ @ @ @ @ d Q @ @ @ @ b T = & $ $ $ $ $ $ $ ",
"$ $ $ $ $ $ $ < > . t V u p 7 ,                     , y d z m p                           y f z f y     b T o = & $ $ $ $ $ $ $ ",
"$ $ $ $ $ $ $ < > p V X F u 7 ,                     , t j # C m                         * f ( # 9 f * b @.% o = & $ $ $ $ $ $ $ ",
"$ $ $ $ $ $ $ < > r m F 9 p 0                         r v F j . *                       , * B F V   b @.% % o = & $ $ $ $ $ $ $ ",
"$ $ $ $ $ $ $ < > @ f d S t 0 , * * * * * * * * * * *   S t S y 0 * * * * * * ,           7 S t S y 1.o % % o = & $ $ $ $ $ $ $ ",
"$ $ $ $ $ $ $ < > @   0 0     . . . . . . . . . . . . . . . . . . . . . . . . 7 *           , r   v : % % % o = & $ $ $ $ $ $ $ ",
"$ $ $ $ $ $ $ < > @       , . V 9 w j z j w 9 9 9 9 9 9 9 9 w 9 9 9 9 9 9 9 j d 0           *   u # : % % % o = & $ $ $ $ $ $ $ ",
"$ $ $ $ $ $ $ < > @       , . w ,.!  .Y Y ! $.# # # # # # # # # # # # # # 8 M             ,   u 8 # : % % % o = & $ $ $ $ $ $ $ ",
"$ $ $ $ $ $ $ < > @       * . =.Y G g G H G  .,.# # # # # # # # # # # # 8 M             ,   M 8 # # : % % % o = & $ $ $ $ $ $ $ ",
"$ $ $ $ $ $ $ < > @       , . <.g g H g g G g ! # # # # # # # # # # # 8 M   ,             M 8 # # # : % % % o = & $ $ $ $ $ $ $ ",
"$ $ $ $ $ $ $ < > @       , . <.H H g G G g H ! # # # # # # # # # # 8 u   ,           r S 8 # # # # : % % % o = & $ $ $ $ $ $ $ ",
"$ $ $ $ $ $ $ < > @       * . =.Y H g H G g  .$.# # # # # # # # # 8 u   0           * [ 7.# # # # # : % % % o = & $ $ $ $ $ $ $ ",
"$ $ $ $ $ $ $ < > @       , . w $.! Y g Y  .o.# # # # # # # # # 8 u   p   *       * [ } 8.# # # # # : % % % o = & $ $ $ $ $ $ $ ",
"$ $ $ $ $ $ $ < > @       , . w # # 4.O.o.*.J &.X # # # # # # 8 v 7 . B d 7     * [ } O 1 # # # # # : % % % o = & $ $ $ $ $ $ $ ",
"$ $ $ $ $ $ $ < > @       , . w # # k ` X.*.l 2.# # # # # # X v   d z 8 w m   0 [ } % O 1 # # # # # : % % % o = & $ $ $ $ $ $ $ ",
"$ $ $ $ $ $ $ < > @       , . w # # k ` J t.l 3.# # # # # X h 7 0   h # j . , -.} % % O 1 # # # # # : % % % o = & $ $ $ $ $ $ $ ",
"$ $ $ $ $ $ $ < > @       , . w # # k ` l l l $ # # # # X h 7 *     M m v . f w.2 o % O 1 # # # # # : % % % o = & $ $ $ $ $ $ $ ",
"$ $ $ $ $ $ $ < > @   *   , . w # # k ` J l l J C # # X h 7 *   ,   7 r   f C 3 2 + % O 1 # # # # # : % % % o = & $ $ $ $ $ $ $ ",
"$ $ $ $ $ $ $ < > @ * . 7 * . w # # k O.o.J l l &.# # B 7 *         * r f C # 3 2 + % O 1 # # # # # : % % % o = & $ $ $ $ $ $ $ ",
"$ $ $ $ $ $ $ < > , * u f r . w # # k O.k &.l l 2.# B . *           0 d 9 # # 3 2 + % O 1 # # # # # : % % % o = & $ $ $ $ $ $ $ ",
"$ $ $ $ $ $ $ < > t h C ( u p ( # # k O.k o.y.J C V . 0           0 d 9 # # # 3 2 + % O 1 # # # # # : % % % o = & $ $ $ $ $ $ $ ",
"$ $ $ $ $ $ $ < > , u # F d . w q k X.` ' 4.*.J B . 0           @ -.9 # # # # 3 2 + % O 1 # # # # # : % % % o = & $ $ $ $ $ $ $ ",
"$ $ $ $ $ $ $ < > @ m v h t . w k X.' ' ' 3.' 1.7 0           , { 4 X # # # # 3 2 + % O 1 # # # # # : % % % o = & $ $ $ $ $ $ $ ",
"$ $ $ $ $ $ $ < > , . * 7 7 . w # # # # # # z y 0           , { ] 4 X # # # # 3 2 + % O 1 # # # # # : % % % o = & $ $ $ $ $ $ $ ",
"$ $ $ $ $ $ $ < > @ *   * * . w # # # # # z y 7           , { ] O 4 X # # # # 3 2 + % O 1 # # # # # : % % % o = & $ $ $ $ $ $ $ ",
"$ $ $ $ $ $ $ < > @       , . w # # # # z y r u t r     , { ] % O 4 X # # # # 3 2 + % O 1 # # # # # : % % % o = & $ $ $ $ $ $ $ ",
"$ $ $ $ $ $ $ < > @       , . w # # # j p t h C z m 7 0 y ] % % O 4 X # # # # 3 2 + % O 1 # # # # # : % % % o = & $ $ $ $ $ $ $ ",
"$ $ $ $ $ $ $ < > @       , . w # # j p r 7 h # C d r p X.5 + % O 4 X # # # # 3 2 + % O 1 # # # # # : % % % o = & $ $ $ $ $ $ $ ",
"$ $ $ $ $ $ $ < > @       , . w # ( t r   0 M h B y y z 6 5 + % O 4 X # # # # 3 2 + % O 1 # # # # # : % % % o = & $ $ $ $ $ $ $ ",
"$ $ $ $ $ $ $ < > @       , . w ( t r       y   . t z # 6 5 + % O 4 X # # # # 3 2 + % O 1 # # # # # : % % % o = & $ $ $ $ $ $ $ ",
"$ $ $ $ $ $ $ < > @       , . B t r         0 r . V # # 6 5 + % O 4 X # # # # 3 2 + % O 1 # # # # # : % % % o = & $ $ $ $ $ $ $ ",
"$ $ $ $ $ $ $ < > @         7 y 0           0 . V # # # 6 5 + % O 4 X # # # # 3 2 + % O 1 # # # # # : % % % o = & $ $ $ $ $ $ $ ",
"$ $ $ $ $ $ $ < > @           *           * 7 V # # # # 6 5 + % O 4 X # # # # 3 2 + % O 1 # # # # # : % % % o = & $ $ $ $ $ $ $ ",
"$ $ $ $ $ $ $ < > @                     * b 6.q # # # # 6 5 + % O 4 X # # # # 3 2 + % O 1 # # # # # : % % % o = & $ $ $ $ $ $ $ ",
"$ $ $ $ $ $ $ < > @                   , b T e q # # # # 6 5 + % O 4 X # # # # 3 2 + % O 1 # # # # # : % % % o = & $ $ $ $ $ $ $ ",
"$ $ $ $ $ $ $ < > @                 , b T + e q # # # # 6 5 + % O 4 X # # # # 3 2 + % O 1 # # # # # : % % % o = & $ $ $ $ $ $ $ ",
"$ $ $ $ $ $ $ < > @ ,             , b T % + e q # # # # 6 5 + % O 4 X # # # # 3 2 + % O 1 # # # # # : % % % o = & $ $ $ $ $ $ $ ",
"$ $ $ $ $ $ $ < > @ r f p r ,   * 7 @.o % + e q # # # # 6 5 + % O 4 X # # # # 3 2 + % O 1 # # # # # : % % % o = & $ $ $ $ $ $ $ ",
"$ $ $ $ $ $ $ < > y S j h f 7 0 7 v x + % + e q # # # # 6 5 + % O 4 X # # # # 3 2 + % O 1 # # # # # : % % % o = & $ $ $ $ $ $ $ ",
"$ $ $ $ $ $ $ < > . B # F m     v q ;.O % + e q # # # # 6 5 + % O 4 X # # # # 3 2 + % O 1 # # # # # : % % % % = & $ $ $ $ $ $ $ ",
"$ $ $ $ $ $ $ s >.b m ( j p   v 8 8 x O % + e q # # # # 6 5 + % O 4 X # # # # 3 2 + % O 1 # # # # # : % % o W ) n $ $ $ $ $ $ $ ",
"$ $ $ $ $ $ $ Z / r.t . t p u 8 # 8 x O % + e q # # # # 6 5 + % O 4 X # # # # 3 2 + % O 1 # # # # # : % % o ..N D $ $ $ $ $ $ $ ",
"$ $ $ $ $ $ $ ^ _ > * 0 * u 8 # # 8 x O % + e q # # # # 6 5 + % O 4 X # # # # 3 2 + % O 1 # # # # # : % o % = & A $ $ $ $ $ $ $ ",
"$ $ $ $ $ $ $ # Z N e.  M 8 # # # 8 x O % + e q # # # # 6 5 + % O 4 X # # # # 3 2 + % O 1 # # # # # : o % +.i D # $ $ $ $ $ $ $ ",
"$ $ $ $ $ $ $ # a P / 5.F # # # # 8 x O % + e q # # # # 6 5 + % O 4 X # # # # 3 2 + % O 1 # # # # # : W +.N K a # $ $ $ $ $ $ $ ",
"$ $ $ $ $ $ $ # # I P i P A # # # 8 x O % + e q # # # # 6 5 + % O 4 X # # # # 3 2 + % O 1 # # # # # 0.= i K a # # $ $ $ $ $ $ $ ",
"$ $ $ $ $ $ $ # # # a Z E s c # # 8 x O % + e q # # # # 6 5 + % O 4 X # # # # 3 2 + % O 1 # # # # c R _ D X # # # $ $ $ $ $ $ $ ",
"$ $ $ $ $ $ $ # # # # # c & ~ D X 8 x O % + e q # # # # 6 5 + % O 4 X # # # # 3 2 + % O 1 # # a Z E s c # # # # # $ $ $ $ $ $ $ ",
"$ $ $ $ $ $ $ # # # # # # U n i K U ;.O % + e q # # # # 6 5 + % O 4 X # # # # 3 2 + % O 1 # A P i P A # # # # # # $ $ $ $ $ $ $ ",
"$ $ $ $ $ $ $ # # # # # # # a Z E s #.+ % + e q # # # # 6 5 + % O 4 X # # # # 3 2 + % O 1 c s ~ Z a # # # # # # # $ $ $ $ $ $ $ ",
"$ $ $ $ $ $ $ # # # # # # # # X L R / :.% + e q # # # # 6 5 + % O 4 X # # # # 3 2 + o % q.~ & c # # # # # # # # # $ $ $ $ $ $ $ ",
"$ $ $ $ $ $ $ # # # # # # # # # # ^ n N +.W e q # # # # 6 5 + % O 4 X # # # # 3 2 + W = N n U # # # # # # # # # # $ $ $ $ $ $ $ ",
"$ $ $ $ $ $ $ # # # # # # # # # # # I | i = #.q # # # # 6 5 + % O 4 X # # # # 3 2 ..) E Z a # # # # # # # # # # # $ $ $ $ $ $ $ ",
"$ $ $ $ $ $ $ # # # # # # # # # # # # X L R N L X # # # 6 5 + % O 4 X # # # # 3 :./ & L # # # # # # # # # # # # # $ $ $ $ $ $ $ ",
"$ $ $ $ $ $ $ # # # # # # # # # # # # # # ^ s i | a # # 6 5 + % O 4 X # # # I K N n U # # # # # # # # # # # # # # $ $ $ $ $ $ $ ",
"$ $ $ $ $ $ $ # # # # # # # # # # # # # # # I K i n U # 6 5 + % O 4 X # # ^ s i | I # # # # # # # # # # # # # # # $ $ $ $ $ $ $ ",
"$ $ $ $ $ $ $ # # # # # # # # # # # # # # # # X D ~ & c 6 5 + % O 4 X X L R R L # # # # # # # # # # # # # # # # # $ $ $ $ $ $ $ ",
"$ $ $ $ $ $ $ # # # # # # # # # # # # # # # # # # c s E 9.5 + % O 4 I | i s ^ # # # # # # # # # # # # # # # # # # $ $ $ $ $ $ $ ",
"$ $ $ $ $ $ $ # # # # # # # # # # # # # # # # # # # A P i = W o + #.n i K I # # # # # # # # # # # # # # # # # # # $ $ $ $ $ $ $ ",
"$ $ $ $ $ $ $ # # # # # # # # # # # # # # # # # # # # a D ~ ) ....) _ D X # # # # # # # # # # # # # # # # # # # # $ $ $ $ $ $ $ ",
"$ $ $ $ $ $ $ # # # # # # # # # # # # # # # # # # # # # # c s / N s ^ # # # # # # # # # # # # # # # # # # # # # # $ $ $ $ $ $ $ ",
"$ $ $ $ $ $ $ # # # # # # # # # # # # # # # # # # # # # # # U n n A # # # # # # # # # # # # # # # # # # # # # # # $ $ $ $ $ $ $ "
};
