/* XPM */
static char *result[] = {
/* columns rows colors chars-per-pixel */
"64 64 2 1 ",
"  c #C0C0C0",
"x c #ffffff",
/* pixels */
"xxxxxxxxxxxxxxxxxxxxxxxxxxxxxxxxxxxxxxxxxxxxxxxxxxxxxxxxxxxxxxxx",
"                                                               x",
"                                                               x",
"                                                               x",
"                                                               x",
"                                                               x",
"                                                               x",
"                                                               x",
"                                                               x",
"                                                               x",
"                                                               x",
"                                                               x",
"                                                               x",
"                                                               x",
"                                                               x",
"                                                               x",
"                                                               x",
"                                                               x",
"                                                               x",
"                                                               x",
"                                                               x",
"                                                               x",
"                                                               x",
"                                                               x",
"                                                               x",
"                                                               x",
"                                                               x",
"                                                               x",
"                                                               x",
"                                                               x",
"                                                               x",
"                                                               x",
"                                                               x",
"                                                               x",
"                                                               x",
"                                                               x",
"                                                               x",
"                                                               x",
"                                                               x",
"                                                               x",
"                                                               x",
"                                                               x",
"                                                               x",
"                                                               x",
"                                                               x",
"                                                               x",
"                                                               x",
"                                                               x",
"                                                               x",
"                                                               x",
"                                                               x",
"                                                               x",
"                                                               x",
"                                                               x",
"                                                               x",
"                                                               x",
"                                                               x",
"                                                               x",
"                                                               x",
"                                                               x",
"                                                               x",
"                                                               x",
"                                                               x",
"                                                               x"
};
