/* XPM */
static char *result[] = {
/* columns rows colors chars-per-pixel */
"32 32 2 1 ",
"  c #C3C3C3",
"x c #ffffff",
/* pixels */
"xxxxxxxxxxxxxxxxxxxxxxxxxxxxxxxx",
"                               x",
"                               x",
"                               x",
"                               x",
"                               x",
"                               x",
"                               x",
"                               x",
"                               x",
"                               x",
"                               x",
"                               x",
"                               x",
"                               x",
"                               x",
"                               x",
"                               x",
"                               x",
"                               x",
"                               x",
"                               x",
"                               x",
"                               x",
"                               x",
"                               x",
"                               x",
"                               x",
"                               x",
"                               x",
"                               x",
"                               x"
};
