/* XPM */
static char *_695571624345[] = {
/* columns rows colors chars-per-pixel */
"64 64 21 1 ",
"  c #B03A26",
". c #B74B3A",
"X c #C36A5B",
"o c #D5978D",
"O c #F1DBD8",
"+ c #ECCECA",
"@ c #CB7E71",
"# c #B13C29",
"$ c #CC4424",
"% c #B44331",
"& c #BE5D4D",
"* c #DFB1A9",
"= c #BB5443",
"- c #DAA39A",
"; c #E9C8C3",
": c #E5BEB8",
"> c #D08A7E",
", c #C77466",
"< c #EFD6D2",
"1 c #F6E7E5",
"2 c #FDF9F8",
/* pixels */
"$##############################################################$",
"$##############################################################$",
"$##############################################################$",
"$##############################################################$",
"$##############################################################$",
"$#############################  ###############################$",
"$#############################,X###############################$",
"$########################### =O<.##############################$",
"$############################-+<o##############################$",
"$########################## XOX@O& ############################$",
"$##########################%:*#%:*#############################$",
"$######################### @O&  XOX ###########################$",
"$#########################.+o####-:%###########################$",
"$#########################>+.####=<@ ##########################$",
"$####################### =<@ #### >+.##########################$",
"$########################-:%######.+o##########################$",
"$###################### XOX ###### @O& ########################$",
"$######################%:-##########:*#########################$",
"$##################### @O& ###.#### XOX #######################$",
"$#####################.+o ## &;@ ####-:%#######################$",
"$#################### o+.####*1+= ## =<@ ######################$",
"$################### &O@ ## ,OX:-#####>+.######################$",
"$####################*:%###.+o &O, ###.;o######################$",
"$################## XOX ###o;.##o+.### ,O& ####################$",
"$##################%:-### XO, ##.;-####%:*#####################$",
"$################# @<= ##%:*###  XO, ## XOX ###################$",
"$#################.+> ## ><= #####o+.####-:%###################$",
"$#################o;.## =<> ## ###.;-### =<@ ##################$",
"$############### &O, ###*:%##%>.## XOX ## >+.##################$",
"$################**%## ,OX ##>+.####-;.###.;o##################$",
"$############## XO& ##.;o## XO, ####.+o### ,O& ################$",
"$##############%:-####o+.##.;-###### ,OX ##%**#################$",
"$############# ><= # &O, ##-;.########-;%## &OX ###############$",
"$#############.+> ##%:*%# ,OX ####### =+o####-:%###############$",
"$#############o;%## @<&  =+>########## ,O& # =<@ ##############$",
"$########### &O, # =<> #%*:%############*:%## >+.##############$",
"$############**%###-;%# ><& ########### =<> ##.;o##############$",
"$########## ,O& # XOX  &<@ ############# @O& # ,O& ############$",
"$##########%;o###.;-##%:-################%*:%##%**#############$",
"$######### >+= # >+= #o+. ############### =<> # &OX ###########$",
"$######## =<> # &O@  X<X ################# @<& ##-:%###########$",
"$######## -:%##%**%#%;;= ##################%**%# =<@ ##########$",
"$####### &OX # @O& #%>+<o=  ############### &<@ # >+.##########$",
"$#######%**###.+o ### .>+<o=# ############## ><=  %;o##########$",
"$###### ,<& ##-+=%%%%%%%=><Oo=%%%%%%%%%%%%%%%.:*%%%@O& ########$",
"$#######o>## =11+++++++++;O221++;;++++++++++++O2++++2o ########$",
"$#######%%###%,@@@@@@@@@@@@@@>;21-@@@@@@@@@@@@@-1o@@@&#########$",
"$#############                %,:O-&           %:-    #########$",
"$#########################   ## %,:O*X# ####### XO, ###########$",
"$###############################  %X:O*X# ###### o+.###########$",
"$################################## %X*O*X% #####.;-###########$",
"$################################### ##X*O:,% ### XO, #########$",
"$###################################### #&*O:,% ###o;.#########$",
"$######################################## #&-O:,%  .;-#########$",
"$########################################## #&-O;@% XOX #######$",
"$############################################ #=oO;@.-;.#######$",
"$################################################=o<;oOo#######$",
"$################################################  =o<21X #####$",
"$##################################################  =><o######$",
"$##################################################### ..######$",
"$##############################################################$",
"$##############################################################$",
"$##############################################################$",
"$##############################################################$"
};
