/* XPM */
static char *_695576722427[] = {
/* columns rows colors chars-per-pixel */
"43 64 256 2 ",
"   c #DDD7D4",
".  c #DBD5D3",
"X  c #005825",
"o  c #E4E4E3",
"O  c #DED9D6",
"+  c #E4E5E1",
"@  c #DBDADA",
"#  c #E1E1E1",
"$  c #CCC7C5",
"%  c #E3E3E2",
"&  c #D8D1CE",
"*  c #DDDDDB",
"=  c #E4DFDD",
"-  c #D8D3D1",
";  c #E0DAD7",
":  c #C9C5C4",
">  c #E1DCDA",
",  c #E2E0DE",
"<  c #E6E6E5",
"1  c #DFE0DF",
"2  c #DCD7D7",
"3  c #E4DEDA",
"4  c #C4C0BF",
"5  c #DEDADA",
"6  c #E8E8E4",
"7  c #E8EAE7",
"8  c #D3CECD",
"9  c #D6D5D7",
"0  c #C7C2C2",
"q  c #5E507E",
"w  c #D3D3D6",
"e  c #E3E2DF",
"r  c #DFDEDC",
"t  c #D9DAD9",
"y  c #D2CCC9",
"u  c #D85669",
"i  c #BFBFC0",
"p  c #E496A4",
"a  c #E4E7E2",
"s  c #014091",
"d  c #5A4D7A",
"f  c #726491",
"g  c #C4BCB9",
"h  c #E5E2E2",
"j  c #D0D1D4",
"k  c #E7E7E1",
"l  c #635483",
"z  c #ECEBE9",
"x  c #ECE9E6",
"c  c #D78E7D",
"v  c #E7E5E3",
"b  c #015931",
"n  c #D6D8D6",
"m  c #BBBBBC",
"M  c #D1D8D6",
"N  c #6E5E8E",
"B  c #6A5C8C",
"V  c #C28976",
"C  c #005C29",
"Z  c #0167A6",
"A  c #775AB1",
"S  c #665789",
"D  c #C1C4C6",
"F  c #B5B6B9",
"G  c #26214A",
"H  c #DD5D70",
"J  c #084D6D",
"K  c #015625",
"L  c #E1E5DF",
"P  c #403A7C",
"I  c #CDC2BE",
"U  c #CBCECB",
"Y  c #0258A9",
"T  c #2F2B60",
"R  c #00632C",
"E  c #005320",
"W  c #013C87",
"Q  c #006A3B",
"!  c #BA8770",
"~  c #231F41",
"^  c #74544D",
"/  c #ECE6E2",
"(  c #CCCFD1",
")  c #D1D3CE",
"_  c #695D85",
"`  c #292453",
"'  c #01572B",
"]  c #3B3574",
"[  c #C5927A",
"{  c #C1C8CE",
"}  c #E8E3DF",
"|  c #D19783",
" . c #DBE0DD",
".. c #AFB2BD",
"X. c #A86B5C",
"o. c #D18575",
"O. c #D2C9C3",
"+. c #F7F1EA",
"@. c #836DBD",
"#. c #024B1D",
"$. c #B17D6B",
"%. c #88655A",
"&. c #2B6EBA",
"*. c #986151",
"=. c #EFEEEC",
"-. c #014097",
";. c #B5B4B2",
":. c #9E9BB4",
">. c #A9A39F",
",. c #7353AF",
"<. c #DBA993",
"1. c #444186",
"2. c #39316C",
"3. c #006733",
"4. c #036896",
"5. c #064960",
"6. c #00499C",
"7. c #015762",
"8. c #024986",
"9. c #BCB9C4",
"0. c #7865B1",
"q. c #544976",
"w. c #DFD4CF",
"e. c #C6455B",
"r. c #7A6CB8",
"t. c #694D42",
"y. c #977163",
"u. c #DF697A",
"i. c #005547",
"p. c #036880",
"a. c #03614A",
"s. c #D9DAD5",
"d. c #004FA3",
"f. c #C9CBD3",
"g. c #A7A8B6",
"h. c #8A84A2",
"j. c #776C95",
"k. c #08487C",
"l. c #7F62B8",
"z. c #C69A86",
"x. c #7050AA",
"c. c #BDB8B6",
"v. c #4F4840",
"b. c #A87A62",
"n. c #24262C",
"m. c #D9CDCB",
"M. c #C67769",
"N. c #ADAEAC",
"B. c #1B5D9E",
"V. c #1968AF",
"C. c #6D6096",
"Z. c #FDF8F1",
"A. c #8E7DBB",
"S. c #1C191A",
"D. c #A47B70",
"F. c #B27461",
"G. c #27285A",
"H. c #005A3A",
"J. c #DAAAAB",
"K. c #211C3A",
"L. c #7C7899",
"P. c #B5BDBB",
"I. c #9593A8",
"U. c #7056B6",
"Y. c #B3BEC9",
"T. c #193555",
"R. c #B9B1AE",
"E. c #2D629C",
"W. c #4573B2",
"Q. c #9AA8BC",
"!. c #0563B9",
"~. c #0A5FAF",
"^. c #8976BD",
"/. c #685756",
"(. c #835E4B",
"). c #483A37",
"_. c #7D4D42",
"`. c #DCC1C4",
"'. c #332E69",
"]. c #DF919F",
"[. c #045483",
"{. c #A74C6D",
"}. c #073974",
"|. c #4E85B3",
" X c #2F503B",
".X c #6387AD",
"XX c #A4A7A4",
"oX c #80709C",
"OX c #824896",
"+X c #9A6D57",
"@X c #AD8B7E",
"#X c #92756E",
"$X c #888384",
"%X c #515459",
"&X c #AD5D52",
"*X c #673F37",
"=X c #925349",
"-X c #D3A18F",
";X c #1E3173",
":X c #DCB3BA",
">X c #3D78A0",
",X c #E27C8C",
"<X c #869FB8",
"1X c #D3BCB4",
"2X c #726A8E",
"3X c #223984",
"4X c #999795",
"5X c #7F5462",
"6X c #6A49A6",
"7X c #BF2543",
"8X c #CA2139",
"9X c #A4847E",
"0X c #7367A0",
"qX c #646560",
"wX c #7D6EAC",
"eX c #3D2E24",
"rX c #DE9A8C",
"tX c #05523E",
"yX c #D54D60",
"uX c #4A3E6B",
"iX c #7892B1",
"pX c #4E466F",
"aX c #52578A",
"sX c #B42D58",
"dX c #9B6BA0",
"fX c #5F6095",
"gX c #625B7F",
"hX c #C05B6D",
"jX c #D21E30",
"kX c #834438",
"lX c #6C51B0",
"zX c #33363C",
"xX c #8A79A0",
"cX c #806279",
"vX c #8B73B0",
"bX c #BA7F81",
"nX c #A9746C",
"mX c #6D71A0",
"MX c #CE8893",
"NX c #0E5797",
"BX c #9D427F",
"VX c #504E86",
"CX c #17542E",
"ZX c #123A35",
"AX c #A73264",
"SX c #8F6E86",
"DX c #6170BA",
"FX c #797572",
"GX c #6A67B4",
"HX c #7D6A6A",
"JX c #23462A",
"KX c #AA5D90",
"LX c #015150",
"PX c #4260A0",
"IX c #6F5B76",
"UX c #DB58E3",
/* pixels */
"#.JX#.#.v.{.{.5X XE K X X X X X X X X  X{.{.{.2.` ~ K.~ G G G G G G ~ ~ ~ K.K.~ ~ G NX",
"#.#.#.E #. Xv.CXE K K X X X X X X X X X  X X X` K.K.~ G ` ` ` ` ` ` ` ` G G G G G ~ G.",
"#.#.E E E E E E K K K X X X X X X X X X X X ZXK.~ G.G.G.G.T T T T T T T T T T T T T ` ",
"E E E K K K K K ' ' ' ' ' ' X C C C X ' ' b ZX~ T.}.}.;X;X;X;X'.'.'.'.'.2.2.2.] ] 2.2.",
"X X X X X X X ' ' b b b b b C C C C C ' b tXT.T.}.W W W W W W 3X] 2.2.2.] ] ] P P P P ",
"C C C C C C C b b H.H.H.H.b b b b b tXi.5.5.5.}.W W W s s s s W 3X] ] ] P P P 1.1.1.1.",
"R R R R R R R H.H.i.i.i.i.i.tXi.i.LX5.J k.W W W s s -.s -.-.s s 3X] P P P P 1.P 1.1.1.",
"R R R R R 3.3.H.a.7.J J 7.7.7.J J J J k.8.s s s -.-.-.-.-.-.-.-.3XP P 1.VXVXaXaXfXmXmX",
"3.3.3.3.3.3.Q a.7.[.8.8.8.8.8.k.k.k.8.s s -.6.6.6.6.E.W.W..X.XiXI.:.g.g.g.......Y.D { ",
"3.Q Q Q Q Q a.7.[.6.NXB.B.E.E.>X>X.XB.6.d.6.d.d.d.d.Q.g c.c.c.c.F F D I.L.D 9.D D { { ",
"Q Q Q Q Q a.7.[.6..Xg.N.;.;.F c.I Q.Y d.d.d.Y d.Y Y Q.m ..F ..F F D :.pXL.f.f.( f.f.f.",
"Q a.a.a.a.7.7.k.>Xg ;.;.;.;.F c...V.d.Y Y Y Y ~.~.V...0 9.i D : 9 g.q.q.h.* 9 w 9 w j ",
"5.5.5.7.5.J k.[.g.g F F F F F 4 |.Y Y Y Y ~.~.V.V.&.Y.& - ; = +.j q.d d h.x 5 9 w w j ",
"J J J J J p.[.iX4 m m i i i $ Q.V.!.!.!.!.!.!.&.&.&.{ ; / Z.Z.=.2Xq _ q h.v t 9 w j ( ",
"p.p.p.p.p.p.>X4 m m i 4 4 $ D W.&.B.k.k.}.8.~.&.&.&.f.+.=.Z.+.h.d gXq q.L.r 9 w j j ( ",
"p.p.4.4.4.4.F 4 m m i 4 0 y .XB.T.n.S.S.S.S.n.T.E.&.{ +./ =.I.d _ gXd q.L.9 j j j ( ( ",
"4.4.4.4.4.<XI m m i i 4 $ Q.B.n.eX).).).*X(.(.eXS.E.Y.} h :.d q _ l q d 2Xf.9 w j j j ",
"Z Z Z Z |.I g 4 4 4 4 : i W.T.eX^ +XX.! [ | | b.eX~ Q.} :.q q _ l q d q 2Xf.9 w w j w ",
"Z Z Z V.m 4 4 i 0 0 0 O.iX~.).&XM.c c | -X1X-X[ %.n.$XY.S l _ l q d q l j.f.9 9 9 w w ",
"Z Z Z <XI g 4 4 0 : O...&.E.=Xo.c c c c -XJ.<.[ y.v.%XW.S _ S l d q q.d j.f.t 9 w w w ",
"Z Z |.I 4 4 0 0 : $ $ |.&.aX&Xo.c c c | rXJ.-XV y.qX%XPXfXB B l d l uXd j.( t 9 w 9 t ",
"Z V...0 i 0 : : : y <XW.DX_ F.c rX| c rXc z.[ V D.qXqXfXC.C.N q l d pXS f f.t w t r * ",
"Z <XO.i 0 : $ : y 9.DXGXr.0XX.V bX| rXo._.*X_.%.%./.FXB 0Xf S S N S B f f { * @ < 1 # ",
"|.: 0 0 : $ $ $ : A.GXr.r.0.^ _.t.*.y.^ ^ ^ t.^ ^ /.%XgXwXf B f N B B f h.w # =.7 1 1 ",
"m : 0 : $ $ $ 8 :.0.r.r.wX_ /.y.t.*.D.HX%.nX(.b.$.(.zX#XxXC.S l N N N j.f.7 =.z # 1 r ",
"4 0 $ $ $ $ y 9.0.0.r.^.A.wX5XX.nX$.| $.%.o.V ! D.y.^ *.5X0Xq S N oXf g.=.z 7 # # * t ",
"4 0 $ : $ $ y A.A 0.r.^.^.vXD.M.V X.o.z.+X! $.V z.@X%.kXSXC.S f N B I.# z < 1 r @ @ i ",
"0 : $ $ $ y g.A 0.0.l.@.@.A.bXM.V o.c -XX.M.c | V D.y.F.SXC.N j.f j.j 7 o @ @ @ @ M ;.",
": : $ $ O.9.0.A 0.@.@.l.@.^.bXc rXc c *.*X&Xo.M.$.#X*.@XoXf S N N 9.v # @ t t @ @ n F ",
": $ $ $ $ vXx.,.A r.KXhX@.@.dXo.c o.=X*X*X_.*.F.y.%.cXoXxXN B B :.e * * t @ @ @ t # I.",
"$ $ : y :.6Xx.x.U.OXe.dX@.@.vXo.M.=X=X&X&XkX_.$.y.t._ 0XoXN S h.@ 5 @ @ @ @ @ t * 9 pX",
"$ $ O.9.x.x.x.,.U.sXBXl.l.@.l.nXF.X.M.M.hXX.F.*.^ t.cXN j._ f ( r @ @ @ @ @ @ t 1 h.uX",
"$ O.y wX6Xx.lXx.AXBXU.A l.l.@.cXX.$.o.X.*.$.b.t.v.%.9XB f _ .., t @ @ @ @ @ t % ..l d ",
"$ ) :.6XlXlXOX7XsXU.,.A A A l.A %.*.X.V V F.^ v.v.b.9XS q I.1 2 @ @ @ t * @ * w N q q.",
") g OX6XOXAX8XjX7X,.U.,.A A A A A 5X_.X.=X%.^ ).^ b.! IX2X2 2 . 2 O O @ @ 2 e h.q.q uX",
"8 hX7X7X8XjX8X8XjXsXOX,.,.,.,.,.U.l.%.t.t.t.t.^ (.+X$.D.g # = O . O O 5 2 = 9.q d d q.",
"MXe.e.e.e.e.e.e.e.yXu dX^.^.A.A.A.xX! b.+X+X+X(.*.b.$.! z.@X$X8 } 2 @ @ O 5 L.q q q S ",
"1XI I $ O.y y 8 8 j w & - . - - I v.b.[ [ ! b.+X$.V ! ! [ <./.zXF +  .M s.w f l l S N ",
"- 9 . 2 2 . . . . . . .   ; 4 R.g ).V [ V ! ! ! V ! V [ <.@XzXqXXX7 a L  .t j.B l B B ",
"& & - - . - .   O O O > O : R.>.w.%Xy.<.| | [ [ [ V | <.9X%X;.+.: L =.7  .M :.f N C.C.",
"- - - . . .   O 5 = > 8 m 8 I c.w.R./.D.<.<.| -Xz.<.z.#X4Xk Z.} k 6 s.) n  . .:.f f oX",
"  . . .   O O ; > - 0 0 4 g O.O.w.w.O.FX/.#X9X@X#XHX$X$ Z.=.7 3 O.g . a 7 7 7 7 f.L._ ",
";     2   O O > - : y - . & I g . & w./ >.S.n.n.n.4X+.+./ 3 O.O.& n z L L a a a 7 Y.XX",
"3 > O 2   O O > 8 y 8 - . > I &   & & w.Z.$XS.n.>.Z.+ ; - &   O ; ) +  .+ + a 1 M M P.",
"> = = ; O   ; - 8 8 8 - - O g : = O - - ; 3 v.$X+.. & . * * * s., ) L k 6 6 a t j n Y.",
"; > = } = 3 3 8 - & - & 8 . g 4 O . 2 > 2 3 >.8 > * e L r , k , = s.L 7 6 6 1 M U t { ",
"1 1 # % o < , 8 - - . 8 8 . g g 5 - 5 3 = ; >.k + + e e + a k + > >  .7 k k w ) { r M ",
"].J.J.:X:X:Xm.- - - - & & 2 I g 5 2 , , k y R.z # % + + % o + a e > , k k L D ) D r M ",
"yXyXu H H u.`.s.- . - - - 2 y R.5 r , , x : 0 z # + % % + + + + a e * L k t i M D , t ",
"u u u u u u.. . . . . - - 2 & >.5 e , # 6 . O k e e % % o o e + + 6 - U 6 n P.) i +  .",
"H u yXu u MX ..     . 9 . 2 . O e , e e k & 3 + # % e o o + =.7 e > - * + ) P.U D 6  .",
"H H u u yXJ. ..   O   . 2 2 5 # # , # e 6 m.3 e e + + + a , z.1X< & r 6 n i P.: : 7  .",
"u H H u u `.5   . O   2 2 2 r # # # % # v y } e e } k k k ; z.1X+   r + U >.4 4 U z  .",
"H H H u ].2 O O . ;   2 2 5 1 # # % % e } y } e + } k k + + 7 7 r * r v i 4X) m s.z 1 ",
"u.u.H ,X:X@ O   & ;   2 5 r , , # # # + = m./ # } v v + + e L , * * r h m XXs.m + x  .",
"u.H ,X].`.@ O O 8 ;   2 > , , , # # , + > & / # + + + e e e 1 * s.t r , m N.U 4 z < t ",
"u.u.].p . O ; ; 8 ; 2 5 > = , , , # # + ;   6 e % % # 1 # , r t n s.5 r N.>.i n 7 7 M ",
"H ,Xp J.*   > > y O O > 3 , , , = % # 6 ; > v e o % # 1 , r @ t n n O * N.>.: z o z ( ",
"u.].p `.r & > = 8 - > 3 = , # = e % e v   3 v % h % # 1 e t ) . n n @ @ XX4X* z # / D ",
",Xp p `., - ; = & y 3 = = = h h h o # 6 - e < e h o % 1 , * ( 8 - w t w XX>.7 % 2 v P.",
"p p p m.> O   = O $ > = , h h h o % % x   k o o + v % 1 1 # M U 8 & - 8 N.;.x O ; v N.",
"p p p m.- =   } = m.; = = h h h v o < x . / < o v v o 1 1 # t ( U $ 8 & ;.c.x & } > N.",
"].p p m.y 3 > = 3 ; > > h h o < o < 7 6   x < v < v v #  .1 * M M U : 8 c.g x 8 / 8 ;.",
"].].p w.I   = 3 > w.5 r h h < o o < < v > z < < < < o o  .1  .M M M U U R.g = - x 0 0 "
};
