/* XPM */
static char *_695571473487[] = {
/* columns rows colors chars-per-pixel */
"64 64 26 1 ",
"  c #1B4057",
". c #2E5065",
"X c #426275",
"o c #C4CFD4",
"O c #CBD4D9",
"+ c #1F445A",
"@ c #4F6C7E",
"# c #183D55",
"$ c #193F56",
"% c white",
"& c #37586C",
"* c #25495F",
"= c #5B7787",
"- c #708896",
"; c #B4C1C9",
": c #BCC8CF",
"> c #869BA7",
", c #ABBAC2",
"< c #7D93A0",
"1 c #91A4AF",
"2 c #A3B3BC",
"3 c #D4DCE0",
"4 c #66808F",
"5 c #F0F3F5",
"6 c #9AABB5",
"7 c #E0E6E9",
/* pixels */
"                                                                ",
"                                                                ",
"                                                                ",
"                                                                ",
"                                                                ",
"                              $$$$$                             ",
"                         $## +*..**+$##$                        ",
"                      $#+&=<2::oo::;6-@.$#$                     ",
"                    $$&-,Oo,>4=@@==-6;oo6=*#$                   ",
"                  $$&1O:<X* ###$####$+.@1O:4*#  $##$            ",
"                 #*<O,=*##$            #$.<o;@  .XX&+$          ",
"                 X;:=+#                  $#.>O1135572X$         ",
"              $ -O>.#                      $#45%%%%%%3@$        ",
"             $+<34 $                       $*,%%%%%%%%O.$       ",
"            $+>O@#                         #=5%%%%%%%%%-#       ",
"             <OX#                          #1%%%%%%%%%%,        ",
"           #4O@#                           $6%%%%%%%%%%;+       ",
"          $XO4#           $$$#$$           #1%%%%%%%%%%,        ",
"         $*;1         $#$+*&&X&.* ##$      #=5%%%%%%%%%-#       ",
"         #<:.$     $#+&41;oooooo:2<@*#$    $*;%%%%%%%%O.$       ",
"        $&O=#     #*4,O:1-@X&&XX=<2o:>&$$   $Xo%%%%%%52         ",
"        $>,+    $+=;o<X+#*@-16226<4=-,O<*#   #&175572-OX#       ",
"       $.O=#   #&2O<.#+@6OO;6><>12:O:1>o;X#   $ .X@&+ 21$       ",
"       $4:*$   =O2&#+=;O6=&+$###+.&=<,O;oO@$     ##$ #=o.$      ",
"       +,>#   43-+#&23>&$#$$ &-1;o37O,1,377=$        $*o=#      ",
"       .o@# $4O=##@o,X$$  #&1O;6:57:,o3335%7=#        $16$      ",
"      #@o.$#@3=$#XO>*#    =O,@X;:-&+ *&=67%%7@#       #4:*      ",
"      #<, $.:>$$.:1+$   $<O-+Xo1.#$   $# X>7%O&$      #XO&$     ",
"      $11#$>;*$$>:*$    -O=#&o>+$        #$X656       $.o@#     ",
"      +,-#&O@#$&O=#   #@3=#+22+$           #+@@        +:4#     ",
"      +;4#>,+ #>;+   $.:<$#@O&#              ##         ;-#     ",
"      *:=*o4# *:-#   #-:*$ 21$                         $,<#     ",
"     $*:=@o.$#XO&$  $*:-#$.o@#                          2<#     ",
"      *;=<,  #-;+   #@o.$#@o.$                          ,-#     ",
"      +;-6># #11$   #<2  #=:*                          +;4#     ",
"       2>;4# +,-#   $2># #4;+                          *o=#     ",
"      #>,:=# *:=#   +;-# #=:*                         $&OX#     ",
"      #4OO@#$.o@#   +;-# #@o.$                        #@o.$     ",
"      #X37@#$.o@#   +,-# $.o@#                        #<,       ",
"       *:5=#$*o@#   #61#  +,>#                        +,<#      ",
"       #>%<# *:=#   #-;+  #=o.$                      #&OX#      ",
"        X52   ,<#   #XO&$ $*;>$                       <;+       ",
"        +;3.$#>2     *;-#  #@O@#                    $.O-#       ",
"        #=5=##=:*$   #-:*$  $<oX#                    >O.$       ",
"         +,;+#&O@#   $.o4#  $+1o@$$               $ -5-#        ",
"          X3=# 2>#    $-o.$   +<O>.#$           ##.15:*$        ",
"           1O&#4o.$   $*,6+$  $ @;o<&+#########+X<o55@#         ",
"          $.o,*.O-#    $&o>+$   #*4;O;>4@XXX@-1;O;651           ",
"           #@76+<o.$    #@O1*#   $#+X<2:OOOOo;2-XX3o.$          ",
"            #-51&o>      #X:,X$$    ## *.....+$#XO7X#           ",
"              <56-3@#     #.6O>&$#$     $$$$$##@37@$            ",
"             #+-7:;oX#     $+=;O1@* #######+*X>73@#             ",
"               $@O75o&#      #*=2Oo2><-4-<1,O5%:X#              ",
"                 .15%O@$$      # &=<6,,,,223%7>*#               ",
"                   @,57<. ##$$   $###$ *X<O76X $                ",
"                   #+@2732-X.*++ +*.&=>:3O>X #                  ",
"                     # &-,333o:;;;:333;>@*$#                    ",
"                       $# .X=-<11>-=X.+##$                      ",
"                          $###$#####$$                          ",
"                                                                ",
"                                                                ",
"                                                                ",
"                                                                ",
"                                                                "
};
