/* XPM */
static char *_693491397893[] = {
/* columns rows colors chars-per-pixel */
"64 64 3 1 ",
"  c #C0C0C0",
". c #FF00F0",
"X c #FFF0FF",
/*123456789012345678901234567890123456789012345678901234567890123*/
/* pixels */
"                                                                ",
"                                                                ",
"                                                                ",
"    XXXXXXXXXXXXXXXXXXXXXXXXXXXXXXXXXXXXXXXXXXXXXXXXXXXXXXXX    ",
"    XXXXXXXX....XXXXXXXXXXXXXXXXXXXXXXXXXXXXXXXXXXXXXXXXXXXX    ",
"    XXXXXXXX.....XXXXXXXXXXXXXXXXXXXXXXXXXXXXXXXX....XXXXXXX    ",
"    XXXXXXXX......XXXXXXXXXXXXXXXXXXXXXXXXXXXXXXX....XXXXXXX    ",
"    XXXXXXXX......XXXXXXXXXXXXXXXXXXXXXXXXXXXXXXX....XXXXXXX    ",
"    XXXXXXXX.......XXXXXXXXXXXXXXXXXXXXXXXXXXXXXX....XXXXXXX    ",
"    XXXXXXXX.......XXXXXXXXXXXXXXXXXXXXXXXXXXXXXX....XXXXXXX    ",
"    XXXXXXXX........XXXXXXXXXXXXXXXXXXXXXXXXXXXXX....XXXXXXX    ",
"    XXXXXXXX.........XXXXXXXXXXXXXXXXXXXXXXXXXXXX....XXXXXXX    ",
"    XXXXXXXX..........XXXXXXXXXXXXXXXXXXXXXXXXXX.....XXXXXXX    ",
"    XXXXXXXX...........XXXXXXXXXXXXXXXXXXXXXXXXX.....XXXXXXX    ",
"    XXXXXXXX....X......XXXXXXXXXXXXXXXXXXXXXXXXX.....XXXXXXX    ",
"    XXXXXXXX....XX......XXXXXXXXXXXXXXXXXXXXXXXX.....XXXXXXX    ",
"    XXXXXXXX....XX.......XXXXXXXXXXXXXXXXXXXXXXX....XXXXXXXX    ",
"    XXXXXXXX....XXX.......XXXXXXXXXXXXXXXXXXXXXX....XXXXXXXX    ",
"    XXXXXXXX....XXXX.......XXXXXXXXXXXXXXXXXXXXX....XXXXXXXX    ",
"    XXXXXXXX....XXXXX......XXXXXXXXXXXXXXXXXXXXX....XXXXXXXX    ",
"    XXXXXXXX....XXXXXX.....XXXXXXXXXXXXXXXXXXXXX....XXXXXXXX    ",
"    XXXXXXXX....XXXXXXX....XXXXXXXXXXXXXXXXXXXXX....XXXXXXXX    ",
"    XXXXXXXX....XXXXXXX.....XXXXXXXXXXXXXXXXXXXX....XXXXXXXX    ",
"    XXXXXXXX....XXXXXXX......XXXXXXXXXXXXXXXXXXX....XXXXXXXX    ",
"    XXXXXXXX....XXXXXXX.......XXXXXXXXXXXXXXXXXX....XXXXXXXX    ",
"    XXXXXXXX....XXXXXXXX......XXXXXXXXXXXXXXXXXX....XXXXXXXX    ",
"    XXXXXXXX....XXXXXXXXX......XXXXXXXXXXXXXXXXX....XXXXXXXX    ",
"    XXXXXXXX....XXXXXXXXXX.....XXXXXXXXXXXXXXXXX....XXXXXXXX    ",
"    XXXXXXXX....XXXXXXXXXX.....XXXXXXXXXXXXXXXXX....XXXXXXXX    ",
"    XXXXXXXX....XXXXXXXXXXX....XXXXXXXXXXXXXXXXX....XXXXXXXX    ",
"    XXXXXXXX....XXXXXXXXXXX.....XXXXXXXXXXXXXXXX....XXXXXXXX    ",
"    XXXXXXXX....XXXXXXXXXXX.....XXXXXXXXXXXXXXXX....XXXXXXXX    ",
"    XXXXXXXX....XXXXXXXXXXX......XXXXXXXXXXXXXXX....XXXXXXXX    ",
"    XXXXXXXX....XXXXXXXXXXXX.....XXXXXXXXXXXXXXX....XXXXXXXX    ",
"    XXXXXXXX....XXXXXXXXXXXX.....XXXXXXXXXXXXXXX....XXXXXXXX    ",
"    XXXXXXXX....XXXXXXXXXXXXX.....XXXXXXXXXXXXXX....XXXXXXXX    ",
"    XXXXXXXX....XXXXXXXXXXXXX......XXXXXXXXXXXXX....XXXXXXXX    ",
"    XXXXXXXX....XXXXXXXXXXXXX.......XXXXXXXXXXXX....XXXXXXXX    ",
"    XXXXXXXX....XXXXXXXXXXXXXX......XXXXXXXXXXXX....XXXXXXXX    ",
"    XXXXXXXX....XXXXXXXXXXXXXXX......XXXXXXXXXXX....XXXXXXXX    ",
"    XXXXXXXX....XXXXXXXXXXXXXXXX......XXXXXXXXXX....XXXXXXXX    ",
"    XXXXXXXX....XXXXXXXXXXXXXXXX......XXXXXXXXXX....XXXXXXXX    ",
"    XXXXXXXX....XXXXXXXXXXXXXXXXX......XXXXXXXXX....XXXXXXXX    ",
"    XXXXXXXX....XXXXXXXXXXXXXXXXXX.......XXXXXXX....XXXXXXXX    ",
"    XXXXXXXX....XXXXXXXXXXXXXXXXXX........XXXXXX....XXXXXXXX    ",
"    XXXXXXXX....XXXXXXXXXXXXXXXXXXX.......XXXXXX....XXXXXXXX    ",
"    XXXXXXXX....XXXXXXXXXXXXXXXXXXXX.......XXXXX....XXXXXXXX    ",
"    XXXXXXXX....XXXXXXXXXXXXXXXXXXXXXX......XXXX....XXXXXXXX    ",
"    XXXXXXXX....XXXXXXXXXXXXXXXXXXXXXX.......XXX....XXXXXXXX    ",
"    XXXXXXXX....XXXXXXXXXXXXXXXXXXXXXX.........X....XXXXXXXX    ",
"    XXXXXXXX....XXXXXXXXXXXXXXXXXXXXXXX.............XXXXXXXX    ",
"    XXXXXXXX....XXXXXXXXXXXXXXXXXXXXXXXXX...........XXXXXXXX    ",
"    XXXXXXXX....XXXXXXXXXXXXXXXXXXXXXXXXX...........XXXXXXXX    ",
"    XXXXXXXX....XXXXXXXXXXXXXXXXXXXXXXXXXXX.........XXXXXXXX    ",
"    XXXXXXXX....XXXXXXXXXXXXXXXXXXXXXXXXXXXXX.......XXXXXXXX    ",
"    XXXXXXXX....XXXXXXXXXXXXXXXXXXXXXXXXXXXXXXX.....XXXXXXXX    ",
"    XXXXXXXX....XXXXXXXXXXXXXXXXXXXXXXXXXXXXXXXXXXXXXXXXXXXX    ",
"    XXXXXXXX....XXXXXXXXXXXXXXXXXXXXXXXXXXXXXXXXXXXXXXXXXXXX    ",
"    XXXXXXXXXXXXXXXXXXXXXXXXXXXXXXXXXXXXXXXXXXXXXXXXXXXXXXXX    ",
"    XXXXXXXXXXXXXXXXXXXXXXXXXXXXXXXXXXXXXXXXXXXXXXXXXXXXXXXX    ",
"                                                                ",
"                                                                ",
"                                                                ",
"                                                                "
};
