/* XPM */
static char *_695571115728[] = {
/* columns rows colors chars-per-pixel */
"64 64 17 1 ",
"  c #A6BF4C",
". c #B1C760",
"X c #C4D586",
"o c #F8FAF0",
"O c #ABC354",
"+ c #E8EFD0",
"@ c #FDFEFA",
"# c #A5BF4A",
"$ c white",
"% c #9CC434",
"& c #D1DEA0",
"* c #B8CC6F",
"= c #DAE4B2",
"- c #C9D891",
"; c #BED07A",
": c #F0F4DF",
"> c #E2EAC3",
/* pixels */
"%%%%%%%%%%%%%%%%%%%%%%%%%%%%%%%%%%%%%%%%%%%%%%%%%%%%%%%%%%%%%%%%",
"%%%%%%%%%%%%%%%%%%%%%%%%%%%%%%%%%%%%%%%%%%%%%%%%%%%%%%%%%%%%%%%%",
"%%%%%%%%%%%%%%%%%%%%%%%%%%%%%%%%%%%%%%%%%%%%%%%%%%%%%%%%%%%%%%%%",
"                                                                ",
"                                                                ",
"                                                                ",
"       ####   ###   ####   ###   ###   ####   ###   ###         ",
"      #*X-;   *-XO #*XX.##.XX;   ;-XO  .XX.  OX-;   ;-X.#       ",
"       =$$=  O+$o.##&$@X##;@$>O  >$o*##-@$&##*o$+O  >$@&#       ",
"      .:$$-##*o$:.# >$@;##-$$=   =$@;##-$$= #.o$:.##&$$:.#      ",
"    #O=$$:.##-@$> #O:$o.##&$$&# #&$$-##*o$>O O+$@;##*o$$=O#     ",
"   #.=@$@-  O>$$-##*o$+O  >$@X# #-$$= #.:$:.##&$$=   &$$@=.     ",
"   O>$$$=O #;o$:.##-$$= #.:$o*# #;o$+O  =$@X##*o$o;##O>$$@+.#   ",
"    =$@=O##.+$$&  O+$@;##;o$+O  #.:$o*##X@$>  #=$$>O##.>$$+O    ",
"   #.>&O##O=$$:.##;o$+O  &$$=     =$$&##.:$o*##.:$@&  #O&:;#    ",
"     O  #O&@$o;# O>$@-##.:$o;#    X@$+O  &$$=  #Xo$@& #  .      ",
"        .=@$o-  #-@$+.##-@$+O    #.:$@X##.:$oX#  -@$@=.# #      ",
"       -:$$o-  #*:$oX##.+$@-#     #&$$>O #-@$:*#  &o$$+XO       ",
"       =$$:X  #.+$$=   &@$+O#     #.:$@X# O=$$+.#  -:$$+O       ",
"      #*:>*# #.>$$>O##*:$@X#       #&$$:.##.+$$>.#  *>oX#       ",
"        .O#  *+$$+.##O>$$>O      #  O+$$=O #*:$$+*# #O*O        ",
"        # #O-o$$+.#  &@$:*##.-O  ;O #;o$@&  #;:$$:X # #         ",
"          ;>@$$>.#  -o$o-   =+O#O+-   -@$oX  #*+$$@=*           ",
"          >$$o&O#  -o$@&  #X@+O#O+o*# O=$$oX  #.=o$$+O          ",
"         #;o+; ## -o$$=O #.:$+O#O+$>O #O=$$o- ## X+@&           ",
"           *O# #.=@$$=O# #;@$+O#O+$o*# #O=$$@=O# #.XO           ",
"             # ;+$$@=O#  #X@$+O#O+$o*#  #O=@$@+; ###            ",
"            #*=o$$o-O#   #X@$+O#O+$o*#   #O&o$$o=.              ",
"            O>$$$+;  #OO #X@$+O#O+$o*# .O#  ;+$$$+.             ",
"           ##Xoo&.# #*>X##X@$+O#O+$o*##-=O# #.&o$&              ",
"             O-* # #;:@X##X@$+O#O+$o*##&$=O  # *&.#             ",
"             ###   #=$@X##X@$+O#O+$o*##&$@;#   #                ",
"                    =$@X##X@$+O#O+$o*##&$$&#                    ",
"               O-.# =$@X##X@$+O#O+$o*##&$$&##.&O                ",
"                ;.# =$@X##X@$+O#O+$o*##&$$&##*&O                ",
"                    =$@X##X@$+O#O+$o*##&$$&# ..#                ",
"                    =$@X##X@$+O#O+$o*##&$$&#                    ",
"                    =$@X##X@$+O#O+$o*##&$$&#                    ",
"                    =$@X##X@$+O#O+$o*##&$$&#                    ",
"                    =$@X##X@$+O#O+$o*##&$$-#                    ",
"                    =$@X##X@$+O#O+$o*##&$$-#                    ",
"                   #X@@X##X@$+O#O+$o*##&$$-#                    ",
"                    O>$X##X@$+O#O+$o*##&$:.#                    ",
"                   ##;oX##X@$+O#O+$o*##&@-#                     ",
"                      &X##X@$+O#O+$o*##&+O                      ",
"                      .*##X@$+O#O+$o*##-;#                      ",
"                       # #X@$+O#O+$o*# .O                       ",
"                        ##X@$+O#O+$o*#                          ",
"                         #X@$+O#O+$o*#                          ",
"                        ##X@$+O#O+$o*#                          ",
"                         #X@$+O#O+$o*#                          ",
"                         #;@$+O#O+$o*#                          ",
"                         #.:$+O#O+$o*#                          ",
"                          #-@+O#O+$=                            ",
"                           O>+O#O+:.#                           ",
"                           #;>O#O+&                             ",
"                            OXO O&.#                            ",
"                               #OO                              ",
"                                                                ",
"                                                                ",
"                                                                ",
"%%%%%%%%%%%%%%%%%%%%%%%%%%%%%%%%%%%%%%%%%%%%%%%%%%%%%%%%%%%%%%%%",
"%%%%%%%%%%%%%%%%%%%%%%%%%%%%%%%%%%%%%%%%%%%%%%%%%%%%%%%%%%%%%%%%",
"%%%%%%%%%%%%%%%%%%%%%%%%%%%%%%%%%%%%%%%%%%%%%%%%%%%%%%%%%%%%%%%%"
};
