/* XPM */
static char *f822eb8c976c41f9f2bfd8c0f1deca26N1A3ySNDbD4vOs7D[] = {
/* columns rows colors chars-per-pixel */
"32 32 3 1 ",
"  c #00ff00",
"x c #000000",
"y c #ffffff"
/* pixels */
"xxxxxxxxxxxxxxxxxxxxxxxxxxxxxxxx",
"y                              x",
"y                              x",
"y                              x",
"y                              x",
"y                              x",
"y                              x",
"y                              x",
"y                              x",
"y                              x",
"y                              x",
"y                              x",
"y                              x",
"y                              x",
"y                              x",
"y                              x",
"y                              x",
"y                              x",
"y                              x",
"y                              x",
"y                              x",
"y                              x",
"y                              x",
"y                              x",
"y                              x",
"y                              x",
"y                              x",
"y                              x",
"y                              x",
"y                              x",
"y                              x",
"yyyyyyyyyyyyyyyyyyyyyyyyyyyyyyyx"
};
