/* XPM */
static char *_693492207160[] = {
/* columns rows colors chars-per-pixel */
"64 64 4 1 ",
"  c #000000",
". c #555555",
"X c #D3CA13",
"o c #AAAAAA",
/* pixels */
"                                                                ",
"                                                                ",
"                                                                ",
"                                                                ",
"    ........................................................    ",
"    ........................................................    ",
"    ........................................................    ",
"    ........................................................    ",
"    ....oooooooooooooooooooooooooooooooooooooooooooooooo....    ",
"    ....oooooooooooooooooooooooooooooooooooooooooooooooo....    ",
"    ....oooooooooooooooooooooooooooooooooooooooooooooooo....    ",
"    ....oooooooooooooooooooooooooooooooooooooooooooooooo....    ",
"    ....oooooooooooooooooooooooooooooooooooooooooooooooo....    ",
"    ....oooooooooooooooooooooooooooooooooooooooooooooooo....    ",
"    ....oooooooooooooooooooooooooooooooooooooooooooooooo....    ",
"    ....oXXXXXooooooooooooooooooooooooooooooooooooooooooXXXX    ",
"    ....oXXXXXoooooooooooooooooooooooooooooooooooooooooXXXXX    ",
"    ....oXXXXXoooooooooooooooooooooooooooooooooooooooooXXXXX    ",
"    ....oXXXXXoooooooooooooooooooooooooooooooooooooooooXXXXX    ",
"    ....ooXXXXoooooooooooooooooooooooooooooooooooooooooXXXX.    ",
"    ....ooXXXXoooooooooooooooooooooooooooooooooooooooooXXXX.    ",
"    ....ooXXXXooooooooooooooooooooooooooooooooooooooooXXXXX.    ",
"    ....ooXXXXooooooooooooooooooooooooooooooooooooooooXXXXX.    ",
"    ....ooXXXXXooooooooooooooooooooooooooooooooooooooXXXXXX.    ",
"    ....ooXXXXXooooooooooooooooooooooooooooooooooooooXXXXX..    ",
"    ....ooXXXXXoooooooooooooooooooooooooooooooooooooXXXXXX..    ",
"    ....oooXXXXoooooooooooooooooooooooooooooooooooooXXXXX...    ",
"    ....oooXXXXXooooooooooooooooooooooooooooooooooooXXXXX...    ",
"    ....oooXXXXXoooooooooooooooooooooooooooooooooooXXXXX....    ",
"    ....oooXXXXXooooooooooooooooooooooooooooooooooXXXXXX....    ",
"    ....ooooXXXXooooooooooooooooooooooooooooooooooXXXXXX....    ",
"    ....ooooXXXXXooooooooooooooXXXXXXooooooooooooXXXXXXo....    ",
"    ....ooooXXXXXoooooooooooooXXXXXXXoooooooooooXXXXXXoo....    ",
"    ....ooooXXXXXoooooooooooXXXXXXXXXXooooooooooXXXXXXoo....    ",
"    ....oooooXXXXooooooooooXXXXXXXXXXXXoooooooooXXXXXooo....    ",
"    ....oooooXXXXXooooooooXXXXXXXXXXXXXoooooooooXXXXoooo....    ",
"    ....oooooXXXXXoooooooXXXXXXXXoXXXXXXoooooooXXXXXoooo....    ",
"    ....oooooXXXXXooooooXXXXXXXooooXXXXXoooooooXXXXXoooo....    ",
"    ....ooooooXXXXooooooXXXXXXXooooXXXXXooooooXXXXXXoooo....    ",
"    ....ooooooXXXXXooooXXXXXXoooooooXXXXooooooXXXXXooooo....    ",
"    ....ooooooXXXXXoooXXXXXXXoooooooXXXXXooooXXXXXXooooo....    ",
"    ....ooooooXXXXXoooXXXXXXooooooooXXXXXooooXXXXXoooooo....    ",
"    ....oooooooXXXXooXXXXXXXooooooooXXXXXoooXXXXXXoooooo....    ",
"    ....oooooooXXXXXoXXXXXXooooooooooXXXXoooXXXXXooooooo....    ",
"    ....oooooooXXXXXXXXXXXoooooooooooXXXXXoXXXXXXooooooo....    ",
"    ....oooooooXXXXXXXXXXXoooooooooooXXXXXoXXXXXoooooooo....    ",
"    ....ooooooooXXXXXXXXXooooooooooooXXXXXXXXXXXoooooooo....    ",
"    ....ooooooooXXXXXXXXoooooooooooooXXXXXXXXXXooooooooo....    ",
"    ....ooooooooXXXXXXXXooooooooooooooXXXXXXXXXooooooooo....    ",
"    ....oooooooooXXXXXXoooooooooooooooXXXXXXXXoooooooooo....    ",
"    ....oooooooooXXXXXoooooooooooooooooXXXXXXooooooooooo....    ",
"    ....oooooooooXXXXXoooooooooooooooooXXXXXXooooooooooo....    ",
"    ....oooooooooooooooooooooooooooooooXXXXXoooooooooooo....    ",
"    ....ooooooooooooooooooooooooooooooooXXXXoooooooooooo....    ",
"    ....oooooooooooooooooooooooooooooooooooooooooooooooo....    ",
"    ........................................................    ",
"    .XXXXXXXXXXXXXXXXXXXXXXXXXXXXXXXXXXXXXXXXXXXXXXXXXXXXXXX    ",
"    XXXXXXXXXXXXXXXXXXXXXXXXXXXXXXXXXXXXXXXXXXXXXXXXXXXXXXXX    ",
"    XXXXXXXXXXXXXXXXXXXXXXXXXXXXXXXXXXXXXXXXXXXXXXXXXXXXXXXX    ",
"    XXXXXXXXXXXXXXXXXXXXXXXXXXXXXXXXXXXXXXXXXXXXXXXXXXXXXXXX    ",
"    XXXX                                                        ",
"                                                                ",
"                                                                ",
"                                                                "
};
