/* XPM */
static char *_695571894437[] = {
/* columns rows colors chars-per-pixel */
"64 64 19 1 ",
"  c #D8A138",
". c #E2B969",
"X c #DBA845",
"o c #DDAD4F",
"O c #DFB25B",
"+ c #D9A33D",
"@ c #F1DEB6",
"# c #ECB42F",
"$ c white",
"% c #F6E8CC",
"& c #E5C077",
"* c #EFD7A8",
"= c #F4E4C3",
"- c #E8C683",
"; c #ECD19C",
": c #F7ECD4",
"> c #EACC90",
", c #FAF3E4",
"< c #FDFBF4",
/* pixels */
"################################################################",
"################################################################",
"                                                                ",
"                                                                ",
"                                                                ",
"                             o-;>O                              ",
"                            O%$$$,-                             ",
"                           X=$$$$$,O                            ",
"                           .<$$$$$$;                            ",
"                       +O-*:$$$$$$$,@>.X                        ",
"                     X-@%@>><$$$$$$*-@:%>o                      ",
"                   X-%=>O+ +@$$$$$,O  o&@%;o                    ",
"                  .@=&X     o=<$$:&     +.@=&+                  ",
"                +-%>X        X.-&o         &=*o                 ",
"               X;=O         +XoooXX         o*=O                ",
"              +*@o      +O-*=%%%%%=@>.X      +>=O               ",
"             +;@X     X-=%@>&.OOOO.-*%%;O     +>=o              ",
"             >@X    +-%=-o+          X&@:;o     >@X             ",
"            .=o    O@%&X               +.@%&    +*>             ",
"           o@.    .%*o                   +-:>+   o@.            ",
"           >>    &:-+                      O%;+   .*X           ",
"          O@X   &:&        +XO...Oo+    +   O=;+   ;&           ",
"          >-   .:&      +O>@%%%%%%%=;.o;=;o  o%>   O*X          ",
"         o*X  o%>      .*:@-.oXXXoO&*%,$$$@+  O:&   ;.          ",
"         &>  +*@+    o;:;O+          O,$$$,o   -%o  .;          ",
"        +;O  .%O    O=@O             X:$$$,o   +@;  X*o         ",
"        o;X +@>    .:;X               &,$,,>+   O%O  >.         ",
"        .>  .%o   O:>+                 o&O.:-   +*;  .-         ",
"        &&  *;   o=;+      XO&->>-.X       .:.   .%X o-         ",
"        -. X%.  +*@+     o;=%=@*@@%%*.+     -%o  X=. X>+        ",
"        -O.*,O  .%O    X>%@&o+   +X.;%*O    +@;   *; +-X        ",
"       +-;<$$:O+@>    o@=.+          o*%.    O:O  -@++-X        ",
"        ;<$$$$;.%o   O%*X             +-:&    *;  .%X -o        ",
"        ;$$$$$@;*   o=;+     +XXX+      &:.   .%X O%o -X        ",
"        -,$$$$>=&  +*@X   +O>@=%=@;.X    -%o  X%. o%o+-+        ",
"        .-%$<*O%o  &%o   O*:@-...&*%=.   +**  +@- o%OX-+        ",
"        O.X=> .=X X=-   .%*O       X>:>oo O:.  ;; o%oo&         ",
"        o& *> &=+ .%X  &:-+          O,,,;+*;  >* O%oO.         ",
"        +&+;; &@  ;*  O:&   o&;;;-O+ O,$$<..=X -@ .%X.o         ",
"         .o-@ &@++=& +=;  o;%=*;;@:@O.$$$$-X%O -@ -@X.+         ",
"         o.O%X&=+X%. &%X O=@.+   +o;:>:$$,O+=. >* *>o.          ",
"         +.o=.O%Xo%O @> O%;+ +Xoo+  &:;*@:o+@- *>X%..X          ",
"          oO;*o%Oo%oo%O+@*++&@%:%=>X &:O+=& @-+=&&%O.           ",
"          +..:O@-X%OO%X&%XX*%>OoO&==O ** *;+=&o%O@;OX           ",
"           oO@;>@X%..=X@>+*@oXO&.o+>%OO%o>*+%.-=.%.O            ",
"            O&%&%O@>.=o%O-=o&=%@=%;X;@X=&>*O%O=>@;O+            ",
"            +O*@@*-@.=.%O%&>%-.&&&@@O%.@-;>-@&%;=OX             ",
"             +.=@:>%&%&%&=&%-@:=%=-@;*;*>@-@;=@:&X              ",
"              X&::%@@@;%;@@*=*...>:>%*@@;%;%@,:;X               ",
"               X-,<::@%%@=%@=>,<,**==@=%=%%:<<*o                ",
"                +-,$<,,,,,::%<$$$$:::,:,,,<$<*X                 ",
"                 +&:$$$$<<<,<$$$$$<<,<<$<$$<>+                  ",
"                   o*<$$$$$<$$$$$$$$$$$$$$%.                    ",
"                    +&=<$$$$$$$$$$$$$$$$:>X                     ",
"                      X&@,$$$$$$$$$$$<%>o                       ",
"                        +o&;=:,<,:%*-OX                         ",
"                            +Xo.OX+                             ",
"                                                                ",
"                                                                ",
"                                                                ",
"                                                                ",
"################################################################",
"################################################################",
"################################################################"
};
